<svg xmlns="http://www.w3.org/2000/svg" xmlns:xlink="http://www.w3.org/1999/xlink" width="324" zoomAndPan="magnify" viewBox="0 0 242.87999 70.499998" height="94" preserveAspectRatio="xMidYMid meet" version="1.0"><defs><g/><clipPath id="ca7da9df61"><path d="M 0.796875 13 L 232 13 L 232 55 L 0.796875 55 Z M 0.796875 13 " clip-rule="nonzero"/></clipPath><clipPath id="00ef6cbb44"><path d="M 1 4.066406 L 83.566406 4.066406 L 83.566406 39.539062 L 1 39.539062 Z M 1 4.066406 " clip-rule="nonzero"/></clipPath><clipPath id="42bc70a910"><path d="M 83 0.582031 L 231.480469 0.582031 L 231.480469 41.8125 L 83 41.8125 Z M 83 0.582031 " clip-rule="nonzero"/></clipPath><clipPath id="5b8e34c532"><rect x="0" width="149" y="0" height="42"/></clipPath><clipPath id="7011180c49"><rect x="0" width="232" y="0" height="42"/></clipPath></defs><g clip-path="url(#ca7da9df61)"><g transform="matrix(1, 0, 0, 1, 0.000000000000000111, 13)"><g clip-path="url(#7011180c49)"><g clip-path="url(#00ef6cbb44)"><path fill="#8aa4c2" d="M 56.203125 5.824219 C 55.425781 5.96875 54.722656 5.890625 53.945312 5.929688 C 53.1875 5.96875 52.511719 6.328125 51.773438 6.464844 C 50.175781 6.75 48.550781 7.476562 47.015625 8.0625 C 45.519531 8.628906 44.144531 9.34375 43.015625 10.484375 C 42.5 11.003906 41.964844 11.3125 41.339844 11.675781 C 40.703125 12.050781 40.183594 12.769531 39.65625 13.292969 C 39.09375 13.851562 38.589844 14.359375 38.261719 15.089844 C 38.082031 15.488281 37.914062 15.890625 37.703125 16.273438 C 37.730469 16.40625 37.789062 16.5625 37.769531 16.710938 C 37.734375 16.976562 37.628906 17.199219 37.488281 17.429688 C 37.207031 17.890625 36.734375 18.144531 36.433594 18.550781 C 36.078125 19.03125 35.988281 19.644531 35.660156 20.144531 C 35.304688 20.671875 34.957031 21.238281 34.578125 21.753906 C 33.921875 22.652344 33.457031 23.613281 32.675781 24.433594 C 32.570312 24.546875 32.453125 24.660156 32.339844 24.765625 C 31.621094 25.867188 31.011719 27.046875 30.21875 28.105469 C 29.722656 28.773438 29.152344 29.375 28.621094 30.019531 C 28.207031 30.527344 27.867188 31.089844 27.433594 31.582031 C 26.449219 32.710938 25.371094 33.847656 24.257812 34.851562 C 23.097656 35.894531 21.777344 36.789062 20.410156 37.542969 C 19.863281 37.84375 19.332031 38.085938 18.707031 38.128906 C 17.898438 38.1875 17.359375 38.554688 16.621094 38.855469 C 15.992188 39.113281 15.398438 39.035156 14.75 39.179688 C 14.007812 39.34375 13.25 39.53125 12.484375 39.5625 C 11.777344 39.589844 11.152344 39.410156 10.488281 39.203125 C 9.804688 38.988281 9.117188 38.988281 8.414062 38.910156 C 7.601562 38.820312 6.789062 38.804688 5.980469 38.722656 C 5.253906 38.648438 4.539062 38.804688 3.839844 38.550781 C 3.144531 38.304688 2.675781 37.738281 2.175781 37.21875 C 1.808594 36.835938 1.429688 36.433594 1.179688 35.96875 C 0.789062 35.246094 2.5 33.625 2.964844 34.484375 C 3.332031 35.152344 4.035156 35.601562 4.515625 36.179688 C 4.808594 36.527344 4.964844 36.96875 5.449219 37.101562 C 5.824219 37.207031 6.265625 37.113281 6.652344 37.191406 C 7.453125 37.351562 8.222656 37.632812 9.03125 37.734375 C 9.84375 37.835938 10.605469 37.847656 11.390625 38.101562 C 12.355469 38.414062 13.199219 38.480469 14.191406 38.230469 C 14.96875 38.035156 15.753906 37.890625 16.519531 37.707031 C 17.328125 37.511719 17.964844 36.828125 18.777344 36.632812 C 19.199219 36.535156 19.609375 36.621094 20.019531 36.421875 C 20.375 36.246094 20.710938 36.007812 21.042969 35.789062 C 23.203125 34.378906 24.878906 32.5 26.460938 30.515625 C 26.867188 29.722656 27.03125 28.832031 27.570312 28.070312 C 27.902344 27.601562 28.222656 27.109375 28.582031 26.660156 C 28.742188 26.460938 28.925781 26.296875 29.117188 26.140625 C 29.136719 26.074219 29.164062 26.007812 29.195312 25.945312 C 29.4375 25.476562 29.550781 25.089844 29.953125 24.695312 C 30.339844 24.316406 30.820312 24 31.300781 23.75 C 31.34375 23.726562 31.386719 23.703125 31.425781 23.679688 C 31.484375 23.605469 31.542969 23.527344 31.605469 23.457031 C 32.046875 22.917969 32.5625 22.441406 32.9375 21.851562 C 33.425781 21.085938 33.832031 20.285156 34.246094 19.488281 C 34.339844 19.253906 34.441406 19.011719 34.566406 18.777344 C 34.816406 18.296875 35.085938 17.863281 35.453125 17.460938 C 35.484375 17.433594 35.515625 17.402344 35.542969 17.371094 C 35.824219 17.035156 36.121094 16.71875 36.371094 16.355469 C 36.757812 15.792969 36.941406 15.097656 37.28125 14.5 C 37.980469 13.261719 39.171875 12.308594 40.148438 11.292969 C 40.675781 10.746094 41.234375 10.472656 41.863281 10.070312 C 42.410156 9.722656 42.785156 9.164062 43.28125 8.746094 C 44.402344 7.800781 45.871094 7.132812 47.230469 6.609375 C 48.03125 6.300781 48.84375 6.035156 49.652344 5.757812 C 50.285156 5.539062 50.878906 5.140625 51.527344 4.992188 C 51.996094 4.882812 52.472656 4.878906 52.941406 4.746094 C 53.3125 4.640625 53.675781 4.507812 54.054688 4.433594 C 54.769531 4.289062 55.472656 4.433594 56.195312 4.363281 C 56.945312 4.292969 57.65625 4.074219 58.417969 4.066406 C 59.058594 4.0625 59.703125 4.101562 60.339844 4.179688 C 61.074219 4.273438 61.691406 4.214844 62.367188 4.546875 C 63.015625 4.863281 63.679688 5.140625 64.335938 5.4375 C 64.675781 5.589844 65.042969 5.726562 65.351562 5.929688 C 65.578125 6.074219 65.691406 6.234375 65.949219 6.300781 C 66.207031 6.367188 66.476562 6.285156 66.738281 6.347656 C 67.015625 6.414062 67.171875 6.566406 67.414062 6.691406 C 68.015625 7.015625 68.679688 7.050781 69.269531 7.457031 C 69.863281 7.863281 70.507812 8.285156 71.066406 8.726562 C 72.15625 9.589844 73 10.769531 73.953125 11.769531 C 74.613281 12.457031 72.863281 14.277344 72.28125 13.628906 C 71.171875 12.40625 70.121094 11.1875 68.941406 10.035156 C 68.339844 9.445312 67.863281 8.789062 67.058594 8.46875 C 66.703125 8.328125 66.480469 8.210938 66.160156 8.011719 C 65.742188 7.753906 65.574219 7.855469 65.117188 7.828125 C 64.484375 7.785156 63.871094 7.257812 63.300781 7 C 62.566406 6.667969 61.835938 6.300781 61.097656 5.984375 C 60.484375 5.726562 59.535156 5.757812 58.867188 5.695312 C 57.960938 5.613281 57.097656 5.65625 56.203125 5.824219 Z M 83.46875 36.882812 C 82.742188 36.730469 82.074219 36.980469 81.359375 37.074219 C 80.5625 37.175781 79.839844 37.058594 79.085938 37.34375 C 78.597656 37.53125 78.011719 37.363281 77.476562 37.363281 C 76.769531 37.367188 76.0625 37.308594 75.351562 37.320312 C 73.679688 37.351562 71.921875 36.871094 70.277344 36.5625 C 69.484375 36.414062 68.726562 36.238281 67.957031 35.992188 C 67.28125 35.777344 66.59375 35.804688 65.941406 35.5625 C 65.285156 35.324219 64.570312 35.097656 63.953125 34.777344 C 63.550781 34.570312 63.414062 34.316406 63.085938 34.050781 C 62.824219 33.84375 62.445312 33.773438 62.234375 33.511719 C 62.089844 33.328125 62.03125 33.035156 61.894531 32.828125 C 61.703125 32.546875 61.472656 32.292969 61.265625 32.019531 C 60.789062 31.382812 60.410156 30.699219 59.863281 30.117188 C 59.378906 29.605469 58.957031 29.035156 58.714844 28.367188 C 58.441406 27.605469 58.46875 26.769531 58.316406 25.976562 C 57.996094 24.3125 56.972656 23.054688 57.664062 21.304688 C 57.964844 20.542969 58.4375 19.957031 58.820312 19.25 C 59.257812 18.445312 59.574219 17.621094 60.132812 16.882812 C 60.652344 16.195312 61.199219 15.484375 61.792969 14.859375 C 62.25 14.371094 62.734375 14.167969 63.378906 14.097656 C 63.851562 14.042969 64.199219 13.84375 64.667969 13.742188 C 64.785156 13.71875 65.175781 13.292969 64.933594 13.269531 C 63.410156 13.140625 62.359375 13.460938 61.21875 14.480469 C 59.855469 15.703125 58.542969 16.730469 57.707031 18.414062 C 56.980469 19.871094 56.085938 21.144531 56.027344 22.835938 C 55.960938 24.617188 56.9375 26.140625 57.113281 27.894531 C 57.1875 28.65625 57.277344 29.328125 57.6875 29.996094 C 58.089844 30.652344 58.648438 31.144531 59.121094 31.738281 C 59.667969 32.421875 60.226562 33.195312 60.714844 33.921875 C 60.90625 34.203125 60.972656 34.59375 61.21875 34.832031 C 61.480469 35.089844 61.878906 35.15625 62.160156 35.410156 C 62.734375 35.914062 63.289062 36.144531 63.984375 36.472656 C 64.363281 36.652344 64.765625 36.828125 65.128906 37.035156 C 65.480469 37.230469 65.757812 37.261719 66.144531 37.394531 C 66.976562 37.679688 67.640625 38.136719 68.523438 38.328125 C 69.53125 38.550781 70.542969 38.746094 71.554688 38.941406 C 73.394531 39.304688 75.382812 39.585938 77.167969 38.886719 C 77.523438 38.746094 77.898438 38.542969 78.246094 38.417969 C 78.664062 38.265625 79.347656 38.347656 79.789062 38.359375 C 80.898438 38.386719 81.933594 38.171875 83.003906 37.878906 C 83.230469 37.820312 83.960938 36.984375 83.46875 36.882812 Z M 83.46875 36.882812 " fill-opacity="1" fill-rule="nonzero"/></g><g clip-path="url(#42bc70a910)"><g transform="matrix(1, 0, 0, 1, 83, -0.000000000000003553)"><g clip-path="url(#5b8e34c532)"><g fill="#ccad8d" fill-opacity="1"><g transform="translate(0.980742, 31.331653)"><g><path d="M 13.890625 -18.375 L 6.9375 -18.375 L 6.9375 -20.421875 L 14.296875 -20.421875 L 15.921875 -18.78125 L 15.921875 -1.640625 L 14.296875 0 L 6.9375 0 L 6.9375 -2.046875 L 13.890625 -2.046875 Z M 4.5 0 L 2.859375 -1.640625 L 2.859375 -24.5 C 2.285156 -24.5 1.800781 -24.695312 1.40625 -25.09375 C 1.007812 -25.488281 0.8125 -25.972656 0.8125 -26.546875 C 0.8125 -27.117188 1.007812 -27.601562 1.40625 -28 C 1.800781 -28.394531 2.285156 -28.59375 2.859375 -28.59375 L 4.90625 -28.59375 L 4.90625 0 Z M 4.5 0 "/></g></g></g><g fill="#ccad8d" fill-opacity="1"><g transform="translate(19.763253, 31.331653)"><g><path d="M 4.90625 -28.59375 L 4.90625 -4.078125 C 5.476562 -4.078125 5.957031 -3.878906 6.34375 -3.484375 C 6.738281 -3.097656 6.9375 -2.617188 6.9375 -2.046875 C 6.9375 -1.472656 6.738281 -0.988281 6.34375 -0.59375 C 5.957031 -0.195312 5.476562 0 4.90625 0 L 4.5 0 L 2.859375 -1.640625 L 2.859375 -28.59375 Z M 4.90625 -28.59375 "/></g></g></g><g fill="#ccad8d" fill-opacity="1"><g transform="translate(28.74619, 31.331653)"><g><path d="M 15.921875 -20.421875 L 15.921875 0 L 13.890625 0 L 13.890625 -20.421875 Z M 2.859375 -20.421875 L 4.90625 -20.421875 L 4.90625 -2.046875 L 11.84375 -2.046875 L 11.84375 0 L 4.5 0 L 2.859375 -1.640625 L 2.859375 -16.34375 C 2.285156 -16.34375 1.800781 -16.535156 1.40625 -16.921875 C 1.007812 -17.316406 0.8125 -17.800781 0.8125 -18.375 C 0.8125 -18.945312 1.007812 -19.429688 1.40625 -19.828125 C 1.800781 -20.222656 2.285156 -20.421875 2.859375 -20.421875 Z M 2.859375 -20.421875 "/></g></g></g><g fill="#ccad8d" fill-opacity="1"><g transform="translate(47.528702, 31.331653)"><g><path d="M 6.9375 -10.203125 L 13.0625 -10.203125 L 13.0625 -18.375 L 6.9375 -18.375 L 6.9375 -20.421875 L 13.484375 -20.421875 L 15.109375 -18.78125 L 15.109375 -9.796875 L 13.484375 -8.171875 L 6.9375 -8.171875 Z M 4.90625 0 L 4.5 0 L 2.859375 -1.640625 L 2.859375 -18.78125 L 4.5 -20.421875 L 4.90625 -20.421875 Z M 6.9375 -2.046875 L 14.703125 -2.046875 L 14.703125 -1.640625 L 13.484375 0 L 6.9375 0 Z M 6.9375 -2.046875 "/></g></g></g><g fill="#ccad8d" fill-opacity="1"><g transform="translate(65.494575, 31.331653)"><g><path d="M 12.09375 -17.96875 L 13.1875 -11.5625 L 11.6875 -1.640625 L 10.046875 0 L 9.6875 0 L 9.6875 -2.046875 Z M 4.65625 -1.640625 L 0.8125 -24.421875 L 0.8125 -26.546875 L 2.859375 -26.546875 L 2.859375 -24.5 L 6.65625 -2.046875 L 7.640625 -2.046875 L 7.640625 0 L 6.296875 0 Z M 21.96875 -2.046875 L 25.40625 -24.5 L 25.40625 -26.546875 L 27.453125 -26.546875 L 27.453125 -24.421875 L 23.96875 -1.640625 L 22.34375 0 L 21.96875 0 Z M 16.90625 -1.640625 L 13.0625 -24.421875 L 13.0625 -26.546875 L 15.109375 -26.546875 L 15.109375 -24.5 L 18.90625 -2.046875 L 19.890625 -2.046875 L 19.890625 0 L 18.546875 0 Z M 16.90625 -1.640625 "/></g></g></g><g fill="#ccad8d" fill-opacity="1"><g transform="translate(94.24008, 31.331653)"><g><path d="M 11.03125 -10.203125 L 4.90625 -10.203125 L 4.90625 -2.046875 L 11.03125 -2.046875 L 11.03125 0 L 4.5 0 L 2.859375 -1.640625 L 2.859375 -10.625 L 4.5 -12.25 L 11.03125 -12.25 Z M 13.0625 -20.421875 L 13.484375 -20.421875 L 15.109375 -18.78125 L 15.109375 0 L 13.0625 0 Z M 11.03125 -18.375 L 7.359375 -18.375 C 7.359375 -17.800781 7.160156 -17.316406 6.765625 -16.921875 C 6.367188 -16.535156 5.882812 -16.34375 5.3125 -16.34375 C 4.738281 -16.34375 4.253906 -16.535156 3.859375 -16.921875 C 3.460938 -17.316406 3.265625 -17.800781 3.265625 -18.375 L 3.265625 -20.421875 L 11.03125 -20.421875 Z M 11.03125 -18.375 "/></g></g></g><g fill="#ccad8d" fill-opacity="1"><g transform="translate(113.186123, 31.331653)"><g><path d="M 3.640625 -1.640625 L 0.8125 -18.296875 L 0.8125 -20.421875 L 2.859375 -20.421875 L 2.859375 -18.375 L 5.640625 -2.046875 L 8.453125 -2.046875 L 8.453125 0 L 5.265625 0 Z M 10.5 -2.046875 L 12.984375 -18.375 L 12.984375 -20.421875 L 15.03125 -20.421875 L 15.03125 -18.296875 L 12.5 -1.640625 L 10.859375 0 L 10.5 0 Z M 10.5 -2.046875 "/></g></g></g><g fill="#ccad8d" fill-opacity="1"><g transform="translate(130.008931, 31.331653)"><g><path d="M 6.9375 -10.203125 L 13.0625 -10.203125 L 13.0625 -18.375 L 6.9375 -18.375 L 6.9375 -20.421875 L 13.484375 -20.421875 L 15.109375 -18.78125 L 15.109375 -9.796875 L 13.484375 -8.171875 L 6.9375 -8.171875 Z M 4.90625 0 L 4.5 0 L 2.859375 -1.640625 L 2.859375 -18.78125 L 4.5 -20.421875 L 4.90625 -20.421875 Z M 6.9375 -2.046875 L 14.703125 -2.046875 L 14.703125 -1.640625 L 13.484375 0 L 6.9375 0 Z M 6.9375 -2.046875 "/></g></g></g></g></g></g></g></g></g></svg>