<svg xmlns="http://www.w3.org/2000/svg" xmlns:xlink="http://www.w3.org/1999/xlink" width="329" zoomAndPan="magnify" viewBox="0 0 246.75 221.249992" height="295" preserveAspectRatio="xMidYMid meet" version="1.0"><defs><clipPath id="d88b4e1b14"><path d="M 0.292969 0 L 245.542969 0 L 245.542969 219.988281 L 0.292969 219.988281 Z M 0.292969 0 " clip-rule="nonzero"/></clipPath><clipPath id="9b189a1997"><path d="M 0.292969 0 L 245.542969 0 L 245.542969 219.988281 L 0.292969 219.988281 Z M 0.292969 0 " clip-rule="nonzero"/></clipPath><clipPath id="d62af5c2d6"><rect x="0" width="246" y="0" height="220"/></clipPath><clipPath id="bb72eb712a"><path d="M 16 64.0625 L 230 64.0625 L 230 156 L 16 156 Z M 16 64.0625 " clip-rule="nonzero"/></clipPath></defs><g clip-path="url(#d88b4e1b14)"><g transform="matrix(1, 0, 0, 1, 0.000000000000000056, 0)"><g clip-path="url(#d62af5c2d6)"><g clip-path="url(#9b189a1997)"><path fill="#f5efeb" d="M 0.292969 0 L 245.199219 0 L 245.199219 219.988281 L 0.292969 219.988281 Z M 0.292969 0 " fill-opacity="1" fill-rule="nonzero"/></g></g></g></g><g clip-path="url(#bb72eb712a)"><path fill="#8aa4c2" d="M 158.640625 68.605469 C 156.632812 68.980469 154.808594 68.777344 152.804688 68.875 C 150.84375 68.976562 149.09375 69.90625 147.1875 70.253906 C 143.0625 71 138.859375 72.871094 134.890625 74.382812 C 131.023438 75.855469 127.464844 77.703125 124.554688 80.648438 C 123.222656 81.992188 121.828125 82.789062 120.222656 83.730469 C 118.570312 84.703125 117.230469 86.558594 115.871094 87.90625 C 114.414062 89.347656 113.109375 90.660156 112.261719 92.550781 C 111.796875 93.585938 111.359375 94.621094 110.816406 95.613281 C 110.886719 95.957031 111.039062 96.355469 110.984375 96.742188 C 110.902344 97.425781 110.625 98.007812 110.265625 98.597656 C 109.539062 99.789062 108.308594 100.445312 107.535156 101.5 C 106.621094 102.742188 106.386719 104.332031 105.535156 105.617188 C 104.621094 106.984375 103.714844 108.441406 102.738281 109.777344 C 101.042969 112.097656 99.847656 114.582031 97.828125 116.707031 C 97.546875 117.003906 97.25 117.289062 96.949219 117.566406 C 95.09375 120.414062 93.519531 123.457031 91.476562 126.195312 C 90.1875 127.921875 88.714844 129.480469 87.34375 131.144531 C 86.269531 132.453125 85.390625 133.90625 84.273438 135.183594 C 81.734375 138.097656 78.9375 141.042969 76.066406 143.628906 C 73.066406 146.335938 69.652344 148.648438 66.117188 150.585938 C 64.703125 151.367188 63.332031 151.992188 61.71875 152.105469 C 59.625 152.257812 58.238281 153.207031 56.324219 153.984375 C 54.703125 154.648438 53.160156 154.449219 51.492188 154.820312 C 49.566406 155.246094 47.609375 155.730469 45.625 155.808594 C 43.808594 155.882812 42.191406 155.414062 40.46875 154.882812 C 38.707031 154.332031 36.925781 154.324219 35.105469 154.125 C 33.011719 153.898438 30.910156 153.851562 28.816406 153.640625 C 26.945312 153.445312 25.097656 153.851562 23.285156 153.199219 C 21.492188 152.554688 20.277344 151.09375 18.984375 149.753906 C 18.035156 148.769531 17.054688 147.726562 16.40625 146.519531 C 15.402344 144.652344 19.824219 140.464844 21.027344 142.683594 C 21.972656 144.414062 23.792969 145.574219 25.035156 147.066406 C 25.792969 147.972656 26.195312 149.105469 27.445312 149.453125 C 28.417969 149.71875 29.554688 149.480469 30.558594 149.683594 C 32.625 150.09375 34.613281 150.828125 36.707031 151.085938 C 38.804688 151.347656 40.777344 151.382812 42.804688 152.039062 C 45.296875 152.847656 47.476562 153.011719 50.042969 152.367188 C 52.050781 151.867188 54.082031 151.492188 56.058594 151.015625 C 58.152344 150.507812 59.792969 148.746094 61.898438 148.242188 C 62.992188 147.984375 64.050781 148.210938 65.105469 147.691406 C 66.027344 147.234375 66.894531 146.621094 67.753906 146.058594 C 73.335938 142.410156 77.671875 137.554688 81.761719 132.425781 C 82.8125 130.371094 83.234375 128.070312 84.628906 126.101562 C 85.488281 124.894531 86.3125 123.621094 87.242188 122.464844 C 87.660156 121.945312 88.132812 121.523438 88.621094 121.117188 C 88.671875 120.945312 88.742188 120.777344 88.824219 120.613281 C 89.453125 119.402344 89.75 118.398438 90.785156 117.382812 C 91.789062 116.402344 93.03125 115.582031 94.269531 114.933594 C 94.375 114.878906 94.488281 114.824219 94.597656 114.761719 C 94.746094 114.570312 94.898438 114.367188 95.050781 114.179688 C 96.199219 112.789062 97.527344 111.554688 98.496094 110.027344 C 99.757812 108.054688 100.808594 105.984375 101.886719 103.929688 C 102.125 103.3125 102.386719 102.695312 102.707031 102.082031 C 103.355469 100.84375 104.050781 99.71875 105.003906 98.6875 C 105.078125 98.605469 105.160156 98.527344 105.238281 98.453125 C 105.960938 97.585938 106.726562 96.761719 107.371094 95.828125 C 108.378906 94.371094 108.851562 92.570312 109.726562 91.027344 C 111.539062 87.828125 114.613281 85.367188 117.136719 82.742188 C 118.503906 81.324219 119.945312 80.621094 121.570312 79.582031 C 122.988281 78.683594 123.953125 77.234375 125.234375 76.15625 C 128.140625 73.714844 131.933594 71.984375 135.449219 70.628906 C 137.511719 69.835938 139.617188 69.148438 141.703125 68.429688 C 143.335938 67.867188 144.875 66.835938 146.554688 66.449219 C 147.769531 66.167969 148.992188 66.15625 150.207031 65.816406 C 151.167969 65.546875 152.105469 65.207031 153.085938 65.007812 C 154.9375 64.632812 156.753906 65.011719 158.617188 64.832031 C 160.5625 64.644531 162.398438 64.082031 164.367188 64.0625 C 166.023438 64.046875 167.6875 64.152344 169.328125 64.355469 C 171.226562 64.597656 172.824219 64.445312 174.574219 65.300781 C 176.25 66.113281 177.964844 66.832031 179.664062 67.605469 C 180.535156 68 181.484375 68.355469 182.289062 68.875 C 182.867188 69.25 183.160156 69.667969 183.828125 69.835938 C 184.492188 70.007812 185.191406 69.800781 185.867188 69.960938 C 186.585938 70.125 186.992188 70.515625 187.621094 70.851562 C 189.171875 71.683594 190.890625 71.777344 192.417969 72.824219 C 193.949219 73.875 195.613281 74.960938 197.0625 76.105469 C 199.875 78.335938 202.054688 81.382812 204.519531 83.972656 C 206.222656 85.753906 201.707031 90.449219 200.195312 88.777344 C 197.332031 85.613281 194.613281 82.460938 191.5625 79.484375 C 190.007812 77.964844 188.773438 76.269531 186.695312 75.4375 C 185.777344 75.074219 185.203125 74.773438 184.375 74.257812 C 183.296875 73.585938 182.855469 73.855469 181.675781 73.78125 C 180.039062 73.675781 178.460938 72.3125 176.984375 71.640625 C 175.089844 70.78125 173.195312 69.832031 171.289062 69.023438 C 169.703125 68.347656 167.246094 68.429688 165.519531 68.269531 C 163.175781 68.058594 160.945312 68.171875 158.640625 68.605469 Z M 229.113281 148.886719 C 227.242188 148.496094 225.511719 149.140625 223.660156 149.378906 C 221.601562 149.640625 219.738281 149.34375 217.78125 150.082031 C 216.523438 150.558594 215.011719 150.125 213.628906 150.132812 C 211.800781 150.140625 209.976562 149.988281 208.140625 150.019531 C 203.8125 150.101562 199.265625 148.851562 195.023438 148.054688 C 192.96875 147.671875 191.003906 147.222656 189.015625 146.582031 C 187.273438 146.027344 185.5 146.101562 183.808594 145.476562 C 182.117188 144.855469 180.269531 144.269531 178.671875 143.441406 C 177.628906 142.910156 177.277344 142.246094 176.425781 141.566406 C 175.753906 141.035156 174.769531 140.851562 174.230469 140.171875 C 173.855469 139.695312 173.707031 138.941406 173.34375 138.40625 C 172.859375 137.675781 172.257812 137.019531 171.726562 136.316406 C 170.496094 134.671875 169.511719 132.898438 168.09375 131.398438 C 166.84375 130.074219 165.753906 128.605469 165.132812 126.875 C 164.417969 124.902344 164.496094 122.742188 164.101562 120.691406 C 163.277344 116.394531 160.632812 113.140625 162.414062 108.617188 C 163.191406 106.648438 164.410156 105.136719 165.402344 103.304688 C 166.535156 101.222656 167.355469 99.097656 168.796875 97.191406 C 170.144531 95.414062 171.554688 93.578125 173.082031 91.953125 C 174.273438 90.695312 175.515625 90.171875 177.191406 89.984375 C 178.414062 89.851562 179.308594 89.328125 180.523438 89.070312 C 180.824219 89.007812 181.832031 87.910156 181.207031 87.851562 C 177.265625 87.515625 174.554688 88.339844 171.605469 90.980469 C 168.082031 94.140625 164.6875 96.796875 162.527344 101.144531 C 160.652344 104.90625 158.339844 108.203125 158.179688 112.574219 C 158.011719 117.1875 160.535156 121.125 160.988281 125.652344 C 161.183594 127.625 161.414062 129.355469 162.472656 131.082031 C 163.515625 132.777344 164.957031 134.058594 166.183594 135.589844 C 167.59375 137.359375 169.042969 139.355469 170.304688 141.234375 C 170.789062 141.957031 170.96875 142.964844 171.601562 143.582031 C 172.28125 144.253906 173.308594 144.425781 174.039062 145.074219 C 175.519531 146.382812 176.957031 146.980469 178.75 147.824219 C 179.730469 148.289062 180.765625 148.746094 181.714844 149.273438 C 182.621094 149.785156 183.339844 149.867188 184.335938 150.207031 C 186.492188 150.949219 188.207031 152.128906 190.484375 152.625 C 193.085938 153.195312 195.703125 153.699219 198.316406 154.210938 C 203.070312 155.144531 208.21875 155.875 212.832031 154.0625 C 213.75 153.699219 214.714844 153.179688 215.617188 152.851562 C 216.695312 152.457031 218.460938 152.671875 219.601562 152.703125 C 222.476562 152.777344 225.148438 152.21875 227.914062 151.464844 C 228.503906 151.304688 230.394531 149.152344 229.113281 148.886719 Z M 229.113281 148.886719 " fill-opacity="1" fill-rule="nonzero"/></g></svg>