<svg xmlns="http://www.w3.org/2000/svg" xmlns:xlink="http://www.w3.org/1999/xlink" width="524" zoomAndPan="magnify" viewBox="0 0 392.88 461.999983" height="616" preserveAspectRatio="xMidYMid meet" version="1.0"><defs><clipPath id="fc1dd32fce"><path d="M 1 46.398438 L 203 46.398438 L 203 230.84375 L 1 230.84375 Z M 1 46.398438 " clip-rule="nonzero"/></clipPath><clipPath id="5c07d0a8bd"><path d="M 40 164 L 294 164 L 294 419 L 40 419 Z M 40 164 " clip-rule="nonzero"/></clipPath><clipPath id="279f1b1c80"><path d="M 334.808594 231.550781 L 247.75 461.550781 L 12.839844 372.628906 L 99.902344 142.632812 Z M 334.808594 231.550781 " clip-rule="nonzero"/></clipPath><clipPath id="fc4090675b"><path d="M 334.808594 231.550781 L 247.75 461.550781 L 12.839844 372.628906 L 99.902344 142.632812 Z M 334.808594 231.550781 " clip-rule="nonzero"/></clipPath></defs><g clip-path="url(#fc1dd32fce)"><path fill="#c8d9e6" d="M 140.394531 46.398438 L 136.632812 47.066406 C 129.214844 47.691406 119.871094 53.363281 108.601562 64.082031 C 106.195312 65.117188 101.058594 78.066406 93.183594 102.9375 C 90.824219 106.921875 87.820312 110.550781 84.175781 113.824219 C 78.3125 119.113281 72.820312 122.738281 67.691406 124.699219 C 54.671875 129.664062 42.382812 133.207031 30.832031 135.320312 L 20.777344 140.691406 C 13.246094 145.5 7.710938 153.109375 4.171875 163.515625 C 1.40625 169.933594 0.890625 177.71875 2.628906 186.871094 C 6.820312 200.132812 11.921875 209.667969 17.933594 215.476562 C 23.777344 220.902344 30.425781 224.863281 37.886719 227.359375 C 41.617188 228.605469 45.550781 229.488281 49.683594 230 C 53.816406 230.515625 58.152344 230.664062 62.691406 230.445312 L 69.648438 229.84375 C 77.011719 228.589844 85.945312 224.71875 96.449219 218.222656 C 101.695312 214.800781 108.234375 208.140625 116.058594 198.238281 C 117.445312 196.835938 119.527344 195.382812 122.3125 193.886719 L 128.042969 191.746094 C 143.589844 188.375 153.28125 186.070312 157.121094 184.839844 C 163.417969 182.675781 168.507812 180.394531 172.386719 177.992188 C 186.785156 168.683594 195.613281 159.6875 198.871094 151.007812 C 202.285156 143.210938 203.222656 135.210938 201.683594 127 C 189.25 95.679688 182.980469 77.410156 182.886719 72.195312 L 179.96875 66.804688 C 176.242188 60.789062 171.566406 56.101562 165.941406 52.746094 C 163.128906 51.070312 160.078125 49.722656 156.792969 48.710938 L 151.683594 47.441406 C 148.15625 46.761719 144.394531 46.414062 140.394531 46.398438 " fill-opacity="1" fill-rule="nonzero"/></g><path fill="#c8d9e6" d="M 246.867188 36.292969 C 257.859375 54.34375 259.523438 79.0625 276.800781 91.238281 C 289.238281 100 305.738281 99.15625 320.679688 102.03125 C 353.605469 108.367188 381.386719 135.988281 387.921875 168.875 C 391.878906 188.804688 386.753906 212.5625 369.21875 222.828125 C 362.082031 227.003906 353.4375 228.660156 347.277344 234.175781 C 338.976562 241.605469 337.472656 253.746094 334.253906 264.410156 C 326.539062 289.949219 305.214844 311.21875 279.34375 317.722656 C 253.472656 324.226562 224.03125 315.152344 207.191406 294.460938 C 194.398438 278.746094 188.972656 257.691406 174.699219 243.316406 C 160.546875 229.066406 140.074219 223.640625 122.167969 214.554688 C 104.261719 205.46875 86.828125 188.652344 89.144531 168.707031 C 91.109375 151.789062 106.207031 140.066406 116.886719 126.800781 C 140.628906 97.304688 125.28125 53.308594 149.75 27.671875 C 176.039062 0.132812 226.9375 3.578125 246.867188 36.292969 Z M 246.867188 36.292969 " fill-opacity="1" fill-rule="nonzero"/><g clip-path="url(#5c07d0a8bd)"><g clip-path="url(#279f1b1c80)"><g clip-path="url(#fc4090675b)"><path fill="#c8d9e6" d="M 108.632812 408.097656 C 95.617188 401.742188 85.113281 391.609375 75.976562 380.539062 C 67.390625 370.140625 59.019531 359.15625 51.929688 347.667969 C 45.5625 337.351562 40.566406 325.976562 40.367188 313.671875 C 40.136719 299.558594 46.382812 285.6875 51.722656 272.90625 C 57.082031 260.066406 62.964844 247.457031 69.363281 235.074219 C 72.089844 229.773438 74.597656 224.355469 77.152344 218.972656 C 82.453125 207.785156 87.945312 196.367188 95.871094 186.757812 C 103.589844 177.402344 113.785156 170.847656 125.351562 167.242188 C 136.914062 163.632812 149.386719 163.058594 161.070312 166.398438 C 167.320312 168.1875 173.027344 171.226562 178.28125 175.023438 C 184.410156 179.457031 190.074219 184.449219 196.625 188.285156 C 221.035156 202.582031 251.191406 204.8125 273.394531 223.292969 C 282.875 231.183594 289.617188 241.558594 292.136719 253.699219 C 294.578125 265.46875 293.171875 277.699219 290.238281 289.238281 C 288.695312 295.3125 286.660156 301.246094 284.34375 307.066406 C 281.535156 314.128906 278.421875 321.1875 277.777344 328.851562 C 277.183594 335.753906 278.296875 342.640625 279.097656 349.484375 C 279.894531 356.328125 280.242188 363.207031 279.257812 370.074219 C 277.351562 383.367188 271.304688 396.097656 261.292969 405.183594 C 252.480469 413.183594 240.90625 418.09375 228.972656 418.347656 C 214.683594 418.65625 201.648438 411.851562 187.996094 408.757812 C 181.242188 407.191406 174.445312 406.945312 167.59375 408.011719 C 161.148438 409.011719 154.863281 410.808594 148.496094 412.183594 C 142.066406 413.578125 135.5 414.492188 128.914062 413.917969 C 121.875 413.304688 114.972656 411.191406 108.632812 408.097656 Z M 108.632812 408.097656 " fill-opacity="1" fill-rule="nonzero"/></g></g></g></svg>