<svg xmlns="http://www.w3.org/2000/svg" xmlns:xlink="http://www.w3.org/1999/xlink" width="249" zoomAndPan="magnify" viewBox="0 0 186.75 186.749996" height="249" preserveAspectRatio="xMidYMid meet" version="1.0"><defs><clipPath id="d9c3aef166"><path d="M 0 0 L 185.863281 0 L 185.863281 185.863281 L 0 185.863281 Z M 0 0 " clip-rule="nonzero"/></clipPath><clipPath id="7dc27fce4d"><path d="M 92.933594 0 C 41.605469 0 0 41.605469 0 92.933594 C 0 144.257812 41.605469 185.863281 92.933594 185.863281 C 144.257812 185.863281 185.863281 144.257812 185.863281 92.933594 C 185.863281 41.605469 144.257812 0 92.933594 0 Z M 92.933594 0 " clip-rule="nonzero"/></clipPath><clipPath id="925fada11b"><path d="M 0 0 L 185.863281 0 L 185.863281 185.863281 L 0 185.863281 Z M 0 0 " clip-rule="nonzero"/></clipPath><clipPath id="48f9ec5234"><path d="M 92.933594 0 C 41.605469 0 0 41.605469 0 92.933594 C 0 144.257812 41.605469 185.863281 92.933594 185.863281 C 144.257812 185.863281 185.863281 144.257812 185.863281 92.933594 C 185.863281 41.605469 144.257812 0 92.933594 0 Z M 92.933594 0 " clip-rule="nonzero"/></clipPath><clipPath id="6806cf4d16"><rect x="0" width="186" y="0" height="186"/></clipPath><clipPath id="ef1b7e3ed2"><path d="M 103 33.761719 L 139 33.761719 L 139 153.851562 L 103 153.851562 Z M 103 33.761719 " clip-rule="nonzero"/></clipPath><clipPath id="300f77aa82"><path d="M 46.503906 33.761719 L 82 33.761719 L 82 153.851562 L 46.503906 153.851562 Z M 46.503906 33.761719 " clip-rule="nonzero"/></clipPath><clipPath id="4da095a098"><path d="M 54.195312 67 L 76.449219 67 L 76.449219 118.824219 L 54.195312 118.824219 Z M 54.195312 67 " clip-rule="nonzero"/></clipPath><clipPath id="27b2a997f3"><path d="M 110.457031 67 L 132.710938 67 L 132.710938 118.824219 L 110.457031 118.824219 Z M 110.457031 67 " clip-rule="nonzero"/></clipPath><clipPath id="d3e2a09d82"><rect x="0" width="186" y="0" height="186"/></clipPath></defs><g transform="matrix(1, 0, 0, 1, 0, 0)"><g clip-path="url(#d3e2a09d82)"><g clip-path="url(#d9c3aef166)"><g clip-path="url(#7dc27fce4d)"><g transform="matrix(1, 0, 0, 1, 0, 0)"><g clip-path="url(#6806cf4d16)"><g clip-path="url(#925fada11b)"><g clip-path="url(#48f9ec5234)"><path fill="#f5efeb" d="M 0 0 L 185.863281 0 L 185.863281 185.863281 L 0 185.863281 Z M 0 0 " fill-opacity="1" fill-rule="nonzero"/></g></g></g></g></g></g><g clip-path="url(#ef1b7e3ed2)"><path fill="#647395" d="M 113.382812 33.761719 L 129.199219 33.761719 C 129.820312 33.761719 130.4375 33.820312 131.050781 33.941406 C 131.660156 34.0625 132.253906 34.246094 132.832031 34.484375 C 133.40625 34.722656 133.953125 35.011719 134.472656 35.359375 C 134.988281 35.707031 135.46875 36.097656 135.910156 36.539062 C 136.347656 36.980469 136.742188 37.460938 137.089844 37.976562 C 137.433594 38.496094 137.726562 39.042969 137.964844 39.617188 C 138.203125 40.195312 138.382812 40.785156 138.503906 41.398438 C 138.628906 42.007812 138.6875 42.625 138.6875 43.25 L 138.6875 144.464844 C 138.6875 145.085938 138.628906 145.703125 138.503906 146.316406 C 138.382812 146.925781 138.203125 147.519531 137.964844 148.09375 C 137.726562 148.671875 137.433594 149.21875 137.089844 149.734375 C 136.742188 150.253906 136.347656 150.734375 135.910156 151.171875 C 135.46875 151.613281 134.988281 152.007812 134.472656 152.351562 C 133.953125 152.699219 133.40625 152.992188 132.832031 153.230469 C 132.253906 153.46875 131.660156 153.648438 131.050781 153.769531 C 130.4375 153.890625 129.820312 153.953125 129.199219 153.953125 L 113.382812 153.953125 C 112.761719 153.953125 112.144531 153.890625 111.53125 153.769531 C 110.921875 153.648438 110.328125 153.46875 109.753906 153.230469 C 109.175781 152.992188 108.628906 152.699219 108.113281 152.351562 C 107.59375 152.007812 107.117188 151.613281 106.675781 151.171875 C 106.234375 150.734375 105.839844 150.253906 105.496094 149.734375 C 105.148438 149.21875 104.855469 148.671875 104.617188 148.09375 C 104.378906 147.519531 104.199219 146.925781 104.078125 146.316406 C 103.957031 145.703125 103.894531 145.085938 103.894531 144.464844 L 103.894531 43.25 C 103.894531 42.625 103.957031 42.007812 104.078125 41.398438 C 104.199219 40.789062 104.378906 40.195312 104.617188 39.617188 C 104.855469 39.042969 105.148438 38.496094 105.496094 37.976562 C 105.839844 37.460938 106.234375 36.980469 106.675781 36.539062 C 107.117188 36.097656 107.59375 35.707031 108.113281 35.359375 C 108.628906 35.011719 109.175781 34.722656 109.753906 34.484375 C 110.328125 34.246094 110.921875 34.0625 111.53125 33.941406 C 112.144531 33.820312 112.761719 33.761719 113.382812 33.761719 Z M 113.382812 33.761719 " fill-opacity="1" fill-rule="nonzero"/></g><g clip-path="url(#300f77aa82)"><path fill="#647395" d="M 56.453125 33.761719 L 72.265625 33.761719 C 72.890625 33.761719 73.507812 33.820312 74.117188 33.941406 C 74.726562 34.0625 75.320312 34.246094 75.898438 34.484375 C 76.472656 34.722656 77.019531 35.011719 77.539062 35.359375 C 78.054688 35.707031 78.535156 36.097656 78.976562 36.539062 C 79.417969 36.980469 79.808594 37.460938 80.15625 37.976562 C 80.503906 38.496094 80.792969 39.042969 81.03125 39.617188 C 81.269531 40.195312 81.449219 40.785156 81.574219 41.398438 C 81.695312 42.007812 81.753906 42.625 81.753906 43.25 L 81.753906 144.464844 C 81.753906 145.085938 81.695312 145.703125 81.574219 146.316406 C 81.449219 146.925781 81.269531 147.519531 81.03125 148.09375 C 80.792969 148.671875 80.5 149.21875 80.15625 149.734375 C 79.808594 150.253906 79.417969 150.734375 78.976562 151.171875 C 78.535156 151.613281 78.054688 152.007812 77.539062 152.351562 C 77.019531 152.699219 76.472656 152.992188 75.898438 153.230469 C 75.320312 153.46875 74.726562 153.648438 74.117188 153.769531 C 73.507812 153.890625 72.890625 153.953125 72.265625 153.953125 L 56.453125 153.953125 C 55.828125 153.953125 55.210938 153.890625 54.601562 153.769531 C 53.988281 153.648438 53.394531 153.46875 52.820312 153.230469 C 52.246094 152.992188 51.699219 152.699219 51.179688 152.351562 C 50.660156 152.007812 50.183594 151.613281 49.742188 151.171875 C 49.300781 150.734375 48.90625 150.253906 48.5625 149.734375 C 48.214844 149.21875 47.921875 148.671875 47.683594 148.09375 C 47.445312 147.519531 47.265625 146.925781 47.144531 146.316406 C 47.023438 145.703125 46.960938 145.085938 46.960938 144.464844 L 46.960938 43.25 C 46.960938 42.625 47.023438 42.007812 47.144531 41.398438 C 47.265625 40.789062 47.445312 40.195312 47.683594 39.617188 C 47.921875 39.042969 48.214844 38.496094 48.5625 37.976562 C 48.90625 37.460938 49.300781 36.980469 49.742188 36.539062 C 50.183594 36.097656 50.660156 35.707031 51.179688 35.359375 C 51.699219 35.011719 52.246094 34.722656 52.820312 34.484375 C 53.394531 34.246094 53.988281 34.0625 54.601562 33.941406 C 55.210938 33.820312 55.828125 33.761719 56.453125 33.761719 Z M 56.453125 33.761719 " fill-opacity="1" fill-rule="nonzero"/></g><g clip-path="url(#4da095a098)"><path fill="#e7e6e5" d="M 55.289062 84.324219 C 55.378906 84.808594 55.332031 85.246094 55.355469 85.730469 C 55.378906 86.203125 55.601562 86.625 55.6875 87.082031 C 55.867188 88.078125 56.316406 89.089844 56.679688 90.046875 C 57.035156 90.976562 57.480469 91.835938 58.191406 92.535156 C 58.515625 92.855469 58.707031 93.191406 58.933594 93.578125 C 59.167969 93.976562 59.613281 94.300781 59.9375 94.625 C 60.285156 94.976562 60.601562 95.292969 61.058594 95.496094 C 61.304688 95.609375 61.554688 95.714844 61.792969 95.84375 C 61.878906 95.828125 61.972656 95.789062 62.066406 95.804688 C 62.230469 95.824219 62.371094 95.890625 62.511719 95.976562 C 62.800781 96.152344 62.957031 96.449219 63.210938 96.632812 C 63.511719 96.855469 63.894531 96.910156 64.203125 97.117188 C 64.535156 97.335938 64.886719 97.554688 65.207031 97.789062 C 65.765625 98.199219 66.363281 98.488281 66.875 98.972656 C 66.945312 99.039062 67.015625 99.113281 67.082031 99.183594 C 67.769531 99.632812 68.5 100.011719 69.160156 100.503906 C 69.578125 100.8125 69.953125 101.167969 70.355469 101.5 C 70.667969 101.757812 71.019531 101.96875 71.324219 102.238281 C 72.027344 102.851562 72.738281 103.523438 73.359375 104.214844 C 74.011719 104.9375 74.570312 105.761719 75.035156 106.609375 C 75.222656 106.953125 75.375 107.28125 75.402344 107.671875 C 75.4375 108.175781 75.667969 108.507812 75.855469 108.96875 C 76.015625 109.359375 75.96875 109.730469 76.054688 110.132812 C 76.160156 110.597656 76.273438 111.070312 76.292969 111.546875 C 76.3125 111.984375 76.199219 112.375 76.070312 112.789062 C 75.9375 113.214844 75.9375 113.644531 75.890625 114.082031 C 75.832031 114.585938 75.824219 115.089844 75.773438 115.597656 C 75.726562 116.046875 75.824219 116.492188 75.664062 116.929688 C 75.511719 117.359375 75.160156 117.652344 74.835938 117.964844 C 74.597656 118.195312 74.347656 118.429688 74.054688 118.585938 C 73.605469 118.828125 72.597656 117.761719 73.132812 117.472656 C 73.550781 117.246094 73.828125 116.804688 74.1875 116.507812 C 74.40625 116.324219 74.679688 116.226562 74.761719 115.925781 C 74.828125 115.691406 74.769531 115.417969 74.820312 115.175781 C 74.917969 114.679688 75.09375 114.199219 75.15625 113.695312 C 75.21875 113.191406 75.230469 112.714844 75.386719 112.226562 C 75.582031 111.625 75.621094 111.101562 75.464844 110.484375 C 75.34375 110 75.253906 109.511719 75.140625 109.035156 C 75.015625 108.53125 74.59375 108.132812 74.472656 107.628906 C 74.410156 107.363281 74.464844 107.109375 74.339844 106.855469 C 74.230469 106.632812 74.082031 106.421875 73.945312 106.21875 C 73.066406 104.871094 71.898438 103.828125 70.660156 102.84375 C 70.167969 102.589844 69.613281 102.488281 69.136719 102.152344 C 68.847656 101.945312 68.542969 101.746094 68.261719 101.523438 C 68.136719 101.421875 68.035156 101.308594 67.9375 101.191406 C 67.898438 101.179688 67.855469 101.160156 67.816406 101.140625 C 67.523438 100.988281 67.285156 100.917969 67.039062 100.667969 C 66.800781 100.425781 66.605469 100.128906 66.449219 99.832031 C 66.433594 99.804688 66.421875 99.777344 66.40625 99.75 C 66.359375 99.714844 66.3125 99.679688 66.265625 99.640625 C 65.933594 99.363281 65.632812 99.046875 65.265625 98.8125 C 64.792969 98.507812 64.292969 98.253906 63.796875 97.996094 C 63.648438 97.9375 63.5 97.875 63.351562 97.796875 C 63.054688 97.640625 62.785156 97.472656 62.535156 97.246094 C 62.515625 97.226562 62.496094 97.207031 62.476562 97.1875 C 62.269531 97.015625 62.070312 96.828125 61.847656 96.675781 C 61.496094 96.429688 61.0625 96.316406 60.691406 96.105469 C 59.917969 95.671875 59.328125 94.929688 58.695312 94.320312 C 58.351562 93.992188 58.183594 93.644531 57.933594 93.253906 C 57.714844 92.914062 57.367188 92.679688 57.109375 92.371094 C 56.519531 91.671875 56.101562 90.757812 55.777344 89.910156 C 55.585938 89.414062 55.417969 88.90625 55.246094 88.40625 C 55.113281 88.011719 54.863281 87.640625 54.769531 87.234375 C 54.703125 86.945312 54.699219 86.648438 54.617188 86.355469 C 54.550781 86.125 54.46875 85.898438 54.421875 85.664062 C 54.332031 85.21875 54.421875 84.777344 54.378906 84.332031 C 54.335938 83.863281 54.199219 83.417969 54.195312 82.945312 C 54.191406 82.546875 54.214844 82.144531 54.265625 81.75 C 54.324219 81.292969 54.289062 80.90625 54.492188 80.488281 C 54.6875 80.082031 54.863281 79.671875 55.046875 79.261719 C 55.144531 79.050781 55.230469 78.820312 55.355469 78.628906 C 55.445312 78.488281 55.546875 78.417969 55.585938 78.257812 C 55.625 78.097656 55.578125 77.929688 55.613281 77.765625 C 55.65625 77.59375 55.75 77.496094 55.828125 77.34375 C 56.03125 76.96875 56.054688 76.554688 56.304688 76.1875 C 56.558594 75.820312 56.820312 75.417969 57.09375 75.070312 C 57.632812 74.390625 58.367188 73.867188 58.992188 73.273438 C 59.417969 72.863281 60.550781 73.949219 60.148438 74.316406 C 59.386719 75.003906 58.625 75.660156 57.910156 76.394531 C 57.542969 76.769531 57.136719 77.066406 56.933594 77.566406 C 56.847656 77.789062 56.773438 77.925781 56.652344 78.125 C 56.488281 78.386719 56.554688 78.492188 56.535156 78.777344 C 56.511719 79.171875 56.183594 79.550781 56.019531 79.90625 C 55.8125 80.363281 55.585938 80.820312 55.390625 81.277344 C 55.226562 81.660156 55.246094 82.25 55.207031 82.667969 C 55.15625 83.230469 55.183594 83.769531 55.289062 84.324219 Z M 74.625 67.347656 C 74.53125 67.800781 74.6875 68.214844 74.746094 68.664062 C 74.808594 69.160156 74.738281 69.609375 74.914062 70.078125 C 75.03125 70.382812 74.925781 70.746094 74.925781 71.078125 C 74.929688 71.519531 74.890625 71.957031 74.898438 72.402344 C 74.917969 73.445312 74.617188 74.539062 74.425781 75.5625 C 74.335938 76.054688 74.226562 76.527344 74.070312 77.007812 C 73.9375 77.425781 73.957031 77.855469 73.804688 78.261719 C 73.65625 78.667969 73.515625 79.113281 73.316406 79.5 C 73.1875 79.75 73.027344 79.835938 72.863281 80.039062 C 72.734375 80.203125 72.691406 80.4375 72.527344 80.570312 C 72.414062 80.660156 72.230469 80.695312 72.101562 80.78125 C 71.925781 80.898438 71.769531 81.042969 71.597656 81.171875 C 71.203125 81.46875 70.777344 81.707031 70.414062 82.046875 C 70.09375 82.347656 69.742188 82.609375 69.324219 82.761719 C 68.847656 82.933594 68.328125 82.914062 67.835938 83.007812 C 66.800781 83.207031 66.015625 83.84375 64.925781 83.414062 C 64.453125 83.226562 64.089844 82.933594 63.648438 82.695312 C 63.144531 82.421875 62.632812 82.226562 62.175781 81.878906 C 61.746094 81.554688 61.304688 81.214844 60.914062 80.847656 C 60.609375 80.558594 60.484375 80.257812 60.4375 79.855469 C 60.40625 79.5625 60.28125 79.347656 60.21875 79.054688 C 60.203125 78.980469 59.9375 78.738281 59.925781 78.890625 C 59.84375 79.839844 60.042969 80.492188 60.679688 81.203125 C 61.441406 82.050781 62.078125 82.867188 63.125 83.390625 C 64.035156 83.839844 64.828125 84.398438 65.878906 84.4375 C 66.992188 84.476562 67.9375 83.867188 69.03125 83.757812 C 69.503906 83.710938 69.921875 83.65625 70.335938 83.402344 C 70.746094 83.152344 71.054688 82.800781 71.425781 82.507812 C 71.851562 82.167969 72.332031 81.820312 72.785156 81.515625 C 72.957031 81.398438 73.199219 81.355469 73.347656 81.203125 C 73.511719 81.039062 73.554688 80.792969 73.707031 80.617188 C 74.023438 80.257812 74.167969 79.914062 74.371094 79.480469 C 74.484375 79.246094 74.59375 78.996094 74.71875 78.765625 C 74.84375 78.546875 74.863281 78.375 74.945312 78.136719 C 75.125 77.617188 75.40625 77.203125 75.527344 76.652344 C 75.664062 76.027344 75.785156 75.398438 75.910156 74.765625 C 76.132812 73.621094 76.308594 72.382812 75.875 71.269531 C 75.785156 71.050781 75.660156 70.816406 75.582031 70.601562 C 75.488281 70.339844 75.539062 69.914062 75.546875 69.640625 C 75.5625 68.949219 75.429688 68.304688 75.246094 67.636719 C 75.210938 67.496094 74.691406 67.042969 74.625 67.347656 Z M 74.625 67.347656 " fill-opacity="1" fill-rule="nonzero"/></g><g clip-path="url(#27b2a997f3)"><path fill="#8aa4c2" d="M 111.550781 84.324219 C 111.640625 84.808594 111.589844 85.246094 111.613281 85.730469 C 111.640625 86.203125 111.863281 86.625 111.945312 87.082031 C 112.125 88.078125 112.578125 89.089844 112.941406 90.046875 C 113.296875 90.976562 113.742188 91.835938 114.449219 92.535156 C 114.773438 92.855469 114.964844 93.191406 115.195312 93.578125 C 115.425781 93.976562 115.875 94.300781 116.199219 94.625 C 116.546875 94.976562 116.863281 95.292969 117.316406 95.496094 C 117.566406 95.609375 117.816406 95.714844 118.054688 95.84375 C 118.136719 95.828125 118.234375 95.789062 118.328125 95.804688 C 118.492188 95.824219 118.632812 95.890625 118.773438 95.976562 C 119.0625 96.152344 119.21875 96.449219 119.472656 96.632812 C 119.773438 96.855469 120.15625 96.910156 120.464844 97.117188 C 120.792969 97.335938 121.144531 97.554688 121.46875 97.789062 C 122.027344 98.199219 122.625 98.488281 123.136719 98.972656 C 123.207031 99.039062 123.277344 99.113281 123.34375 99.183594 C 124.03125 99.632812 124.761719 100.011719 125.421875 100.503906 C 125.835938 100.8125 126.214844 101.167969 126.613281 101.5 C 126.929688 101.757812 127.28125 101.96875 127.585938 102.238281 C 128.289062 102.851562 129 103.523438 129.621094 104.214844 C 130.273438 104.9375 130.828125 105.761719 131.296875 106.609375 C 131.484375 106.953125 131.636719 107.28125 131.664062 107.671875 C 131.699219 108.175781 131.929688 108.507812 132.117188 108.96875 C 132.273438 109.359375 132.226562 109.730469 132.316406 110.132812 C 132.417969 110.597656 132.535156 111.070312 132.554688 111.546875 C 132.574219 111.984375 132.460938 112.375 132.332031 112.789062 C 132.199219 113.214844 132.199219 113.644531 132.148438 114.082031 C 132.09375 114.585938 132.082031 115.089844 132.03125 115.597656 C 131.984375 116.046875 132.082031 116.492188 131.925781 116.929688 C 131.773438 117.359375 131.417969 117.652344 131.097656 117.964844 C 130.859375 118.195312 130.609375 118.429688 130.316406 118.585938 C 129.867188 118.828125 128.859375 117.761719 129.394531 117.472656 C 129.808594 117.246094 130.089844 116.804688 130.449219 116.507812 C 130.667969 116.324219 130.941406 116.226562 131.023438 115.925781 C 131.089844 115.691406 131.03125 115.417969 131.078125 115.175781 C 131.179688 114.679688 131.355469 114.199219 131.417969 113.695312 C 131.480469 113.191406 131.488281 112.714844 131.648438 112.226562 C 131.839844 111.625 131.882812 111.101562 131.726562 110.484375 C 131.605469 110 131.515625 109.511719 131.398438 109.035156 C 131.277344 108.53125 130.855469 108.132812 130.734375 107.628906 C 130.671875 107.363281 130.726562 107.109375 130.597656 106.855469 C 130.488281 106.632812 130.34375 106.421875 130.207031 106.21875 C 129.328125 104.871094 128.160156 103.828125 126.921875 102.84375 C 126.429688 102.589844 125.875 102.488281 125.398438 102.152344 C 125.109375 101.945312 124.800781 101.746094 124.523438 101.523438 C 124.398438 101.421875 124.296875 101.308594 124.199219 101.191406 C 124.15625 101.179688 124.117188 101.160156 124.078125 101.140625 C 123.785156 100.988281 123.542969 100.917969 123.300781 100.667969 C 123.0625 100.425781 122.867188 100.128906 122.710938 99.832031 C 122.695312 99.804688 122.683594 99.777344 122.667969 99.75 C 122.621094 99.714844 122.574219 99.679688 122.527344 99.640625 C 122.191406 99.363281 121.894531 99.046875 121.527344 98.8125 C 121.050781 98.507812 120.554688 98.253906 120.058594 97.996094 C 119.910156 97.9375 119.761719 97.875 119.613281 97.796875 C 119.316406 97.640625 119.042969 97.472656 118.796875 97.246094 C 118.777344 97.226562 118.757812 97.207031 118.738281 97.1875 C 118.53125 97.015625 118.332031 96.828125 118.105469 96.675781 C 117.753906 96.429688 117.320312 96.316406 116.949219 96.105469 C 116.179688 95.671875 115.585938 94.929688 114.957031 94.320312 C 114.613281 93.992188 114.445312 93.644531 114.195312 93.253906 C 113.976562 92.914062 113.628906 92.679688 113.367188 92.371094 C 112.78125 91.671875 112.363281 90.757812 112.039062 89.910156 C 111.847656 89.414062 111.679688 88.90625 111.507812 88.40625 C 111.371094 88.011719 111.125 87.640625 111.03125 87.234375 C 110.960938 86.945312 110.960938 86.648438 110.878906 86.355469 C 110.8125 86.125 110.730469 85.898438 110.683594 85.664062 C 110.59375 85.21875 110.683594 84.777344 110.640625 84.332031 C 110.59375 83.863281 110.460938 83.417969 110.457031 82.945312 C 110.453125 82.546875 110.476562 82.144531 110.527344 81.75 C 110.585938 81.292969 110.546875 80.90625 110.753906 80.488281 C 110.949219 80.082031 111.121094 79.671875 111.308594 79.261719 C 111.402344 79.050781 111.488281 78.820312 111.613281 78.628906 C 111.707031 78.488281 111.804688 78.417969 111.847656 78.257812 C 111.886719 78.097656 111.835938 77.929688 111.875 77.765625 C 111.914062 77.59375 112.011719 77.496094 112.089844 77.34375 C 112.292969 76.96875 112.3125 76.554688 112.566406 76.1875 C 112.820312 75.820312 113.082031 75.417969 113.355469 75.070312 C 113.894531 74.390625 114.628906 73.867188 115.25 73.273438 C 115.679688 72.863281 116.8125 73.949219 116.410156 74.316406 C 115.644531 75.003906 114.886719 75.660156 114.171875 76.394531 C 113.804688 76.769531 113.394531 77.066406 113.195312 77.566406 C 113.109375 77.789062 113.035156 77.925781 112.910156 78.125 C 112.75 78.386719 112.8125 78.492188 112.796875 78.777344 C 112.769531 79.171875 112.441406 79.550781 112.28125 79.90625 C 112.074219 80.363281 111.84375 80.820312 111.648438 81.277344 C 111.488281 81.660156 111.507812 82.25 111.46875 82.667969 C 111.417969 83.230469 111.445312 83.769531 111.550781 84.324219 Z M 130.886719 67.347656 C 130.792969 67.800781 130.949219 68.214844 131.007812 68.664062 C 131.070312 69.160156 131 69.609375 131.175781 70.078125 C 131.289062 70.382812 131.1875 70.746094 131.1875 71.078125 C 131.191406 71.519531 131.152344 71.957031 131.160156 72.402344 C 131.179688 73.445312 130.878906 74.539062 130.6875 75.5625 C 130.59375 76.054688 130.488281 76.527344 130.332031 77.007812 C 130.199219 77.425781 130.21875 77.855469 130.066406 78.261719 C 129.917969 78.667969 129.773438 79.113281 129.578125 79.5 C 129.449219 79.75 129.289062 79.835938 129.125 80.039062 C 128.996094 80.203125 128.953125 80.4375 128.789062 80.570312 C 128.675781 80.660156 128.492188 80.695312 128.363281 80.78125 C 128.1875 80.898438 128.03125 81.042969 127.859375 81.171875 C 127.464844 81.46875 127.035156 81.707031 126.675781 82.046875 C 126.355469 82.347656 126.003906 82.609375 125.585938 82.761719 C 125.109375 82.933594 124.589844 82.914062 124.097656 83.007812 C 123.0625 83.207031 122.277344 83.84375 121.1875 83.414062 C 120.714844 83.226562 120.351562 82.933594 119.90625 82.695312 C 119.40625 82.421875 118.894531 82.226562 118.4375 81.878906 C 118.007812 81.554688 117.566406 81.214844 117.175781 80.847656 C 116.871094 80.558594 116.746094 80.257812 116.699219 79.855469 C 116.667969 79.5625 116.542969 79.347656 116.480469 79.054688 C 116.464844 78.980469 116.199219 78.738281 116.1875 78.890625 C 116.105469 79.839844 116.304688 80.492188 116.9375 81.203125 C 117.699219 82.050781 118.339844 82.867188 119.386719 83.390625 C 120.292969 83.839844 121.089844 84.398438 122.140625 84.4375 C 123.25 84.476562 124.199219 83.867188 125.292969 83.757812 C 125.765625 83.710938 126.183594 83.65625 126.597656 83.402344 C 127.007812 83.152344 127.316406 82.800781 127.683594 82.507812 C 128.109375 82.167969 128.59375 81.820312 129.042969 81.515625 C 129.21875 81.398438 129.460938 81.355469 129.609375 81.203125 C 129.773438 81.039062 129.8125 80.792969 129.96875 80.617188 C 130.285156 80.257812 130.429688 79.914062 130.632812 79.480469 C 130.746094 79.246094 130.855469 78.996094 130.980469 78.765625 C 131.105469 78.546875 131.125 78.375 131.207031 78.136719 C 131.382812 77.617188 131.667969 77.203125 131.789062 76.652344 C 131.925781 76.027344 132.046875 75.398438 132.171875 74.765625 C 132.394531 73.621094 132.570312 72.382812 132.132812 71.269531 C 132.046875 71.050781 131.921875 70.816406 131.84375 70.601562 C 131.746094 70.339844 131.800781 69.914062 131.808594 69.640625 C 131.824219 68.949219 131.691406 68.304688 131.507812 67.636719 C 131.46875 67.496094 130.953125 67.042969 130.886719 67.347656 Z M 130.886719 67.347656 " fill-opacity="1" fill-rule="nonzero"/></g></g></g></svg>