<svg xmlns="http://www.w3.org/2000/svg" xmlns:xlink="http://www.w3.org/1999/xlink" width="401" zoomAndPan="magnify" viewBox="0 0 300.75 300.749988" height="401" preserveAspectRatio="xMidYMid meet" version="1.0"><defs><clipPath id="2538ad8a66"><path d="M 0 0 L 300.394531 0 L 300.394531 300.394531 L 0 300.394531 Z M 0 0 " clip-rule="nonzero"/></clipPath><clipPath id="f781a96c23"><path d="M 150.195312 0 C 67.246094 0 0 67.246094 0 150.195312 C 0 233.148438 67.246094 300.394531 150.195312 300.394531 C 233.148438 300.394531 300.394531 233.148438 300.394531 150.195312 C 300.394531 67.246094 233.148438 0 150.195312 0 Z M 150.195312 0 " clip-rule="nonzero"/></clipPath><clipPath id="72622e0aed"><path d="M 0 0 L 300.394531 0 L 300.394531 300.394531 L 0 300.394531 Z M 0 0 " clip-rule="nonzero"/></clipPath><clipPath id="995d44cdc0"><path d="M 150.195312 0 C 67.246094 0 0 67.246094 0 150.195312 C 0 233.148438 67.246094 300.394531 150.195312 300.394531 C 233.148438 300.394531 300.394531 233.148438 300.394531 150.195312 C 300.394531 67.246094 233.148438 0 150.195312 0 Z M 150.195312 0 " clip-rule="nonzero"/></clipPath><clipPath id="e1fd1e52cb"><rect x="0" width="301" y="0" height="301"/></clipPath><clipPath id="1c6fae4851"><path d="M 167 54.5625 L 225 54.5625 L 225 248.652344 L 167 248.652344 Z M 167 54.5625 " clip-rule="nonzero"/></clipPath><clipPath id="76721e802a"><path d="M 75.164062 54.5625 L 133 54.5625 L 133 248.652344 L 75.164062 248.652344 Z M 75.164062 54.5625 " clip-rule="nonzero"/></clipPath><clipPath id="4d40f4dc4e"><path d="M 87.589844 108.113281 L 123.558594 108.113281 L 123.558594 192 L 87.589844 192 Z M 87.589844 108.113281 " clip-rule="nonzero"/></clipPath><clipPath id="a9583e8a1e"><path d="M 178.515625 108.113281 L 214.488281 108.113281 L 214.488281 192 L 178.515625 192 Z M 178.515625 108.113281 " clip-rule="nonzero"/></clipPath></defs><g clip-path="url(#2538ad8a66)"><g clip-path="url(#f781a96c23)"><g transform="matrix(1, 0, 0, 1, 0, 0)"><g clip-path="url(#e1fd1e52cb)"><g clip-path="url(#72622e0aed)"><g clip-path="url(#995d44cdc0)"><path fill="#c8d9e6" d="M 0 0 L 300.394531 0 L 300.394531 300.394531 L 0 300.394531 Z M 0 0 " fill-opacity="1" fill-rule="nonzero"/></g></g></g></g></g></g><g clip-path="url(#1c6fae4851)"><path fill="#f5efeb" d="M 183.25 54.5625 L 208.808594 54.5625 C 209.816406 54.5625 210.816406 54.660156 211.800781 54.859375 C 212.789062 55.054688 213.75 55.34375 214.679688 55.730469 C 215.609375 56.117188 216.492188 56.589844 217.332031 57.148438 C 218.167969 57.707031 218.941406 58.34375 219.652344 59.054688 C 220.367188 59.765625 221 60.542969 221.5625 61.378906 C 222.121094 62.214844 222.59375 63.101562 222.976562 64.03125 C 223.363281 64.960938 223.65625 65.917969 223.851562 66.90625 C 224.046875 67.894531 224.144531 68.890625 224.144531 69.898438 L 224.144531 233.480469 C 224.144531 234.488281 224.046875 235.484375 223.851562 236.472656 C 223.65625 237.460938 223.363281 238.417969 222.976562 239.347656 C 222.59375 240.277344 222.121094 241.164062 221.5625 242 C 221 242.835938 220.367188 243.613281 219.652344 244.324219 C 218.941406 245.035156 218.167969 245.671875 217.332031 246.230469 C 216.492188 246.789062 215.609375 247.261719 214.679688 247.648438 C 213.75 248.035156 212.789062 248.324219 211.800781 248.519531 C 210.8125 248.71875 209.816406 248.816406 208.808594 248.816406 L 183.25 248.816406 C 182.242188 248.816406 181.246094 248.71875 180.257812 248.519531 C 179.269531 248.324219 178.3125 248.035156 177.382812 247.648438 C 176.453125 247.261719 175.566406 246.789062 174.730469 246.230469 C 173.894531 245.671875 173.117188 245.035156 172.40625 244.324219 C 171.695312 243.613281 171.058594 242.835938 170.5 242 C 169.941406 241.164062 169.46875 240.277344 169.082031 239.347656 C 168.695312 238.417969 168.40625 237.460938 168.210938 236.472656 C 168.011719 235.484375 167.914062 234.488281 167.914062 233.480469 L 167.914062 69.898438 C 167.914062 68.890625 168.011719 67.894531 168.210938 66.90625 C 168.40625 65.917969 168.695312 64.960938 169.082031 64.03125 C 169.46875 63.101562 169.941406 62.214844 170.5 61.378906 C 171.058594 60.542969 171.695312 59.765625 172.40625 59.054688 C 173.117188 58.34375 173.894531 57.707031 174.730469 57.148438 C 175.566406 56.589844 176.453125 56.117188 177.382812 55.730469 C 178.3125 55.34375 179.269531 55.054688 180.257812 54.859375 C 181.246094 54.660156 182.242188 54.5625 183.25 54.5625 Z M 183.25 54.5625 " fill-opacity="1" fill-rule="nonzero"/></g><g clip-path="url(#76721e802a)"><path fill="#f5efeb" d="M 91.234375 54.5625 L 116.796875 54.5625 C 117.804688 54.5625 118.800781 54.660156 119.789062 54.859375 C 120.773438 55.054688 121.734375 55.34375 122.664062 55.730469 C 123.59375 56.117188 124.480469 56.589844 125.316406 57.148438 C 126.152344 57.707031 126.929688 58.34375 127.640625 59.054688 C 128.351562 59.765625 128.988281 60.542969 129.546875 61.378906 C 130.105469 62.214844 130.578125 63.101562 130.964844 64.03125 C 131.347656 64.960938 131.640625 65.917969 131.835938 66.90625 C 132.035156 67.894531 132.132812 68.890625 132.132812 69.898438 L 132.132812 233.480469 C 132.132812 234.488281 132.035156 235.484375 131.835938 236.472656 C 131.640625 237.460938 131.347656 238.417969 130.964844 239.347656 C 130.578125 240.277344 130.105469 241.164062 129.546875 242 C 128.988281 242.835938 128.351562 243.613281 127.640625 244.324219 C 126.925781 245.035156 126.152344 245.671875 125.316406 246.230469 C 124.480469 246.789062 123.59375 247.261719 122.664062 247.648438 C 121.734375 248.035156 120.773438 248.324219 119.789062 248.519531 C 118.800781 248.71875 117.800781 248.816406 116.796875 248.816406 L 91.234375 248.816406 C 90.230469 248.816406 89.230469 248.71875 88.246094 248.519531 C 87.257812 248.324219 86.296875 248.035156 85.367188 247.648438 C 84.4375 247.261719 83.554688 246.789062 82.714844 246.230469 C 81.878906 245.671875 81.105469 245.035156 80.390625 244.324219 C 79.679688 243.613281 79.042969 242.835938 78.484375 242 C 77.925781 241.164062 77.453125 240.277344 77.066406 239.347656 C 76.683594 238.417969 76.390625 237.460938 76.195312 236.472656 C 76 235.484375 75.902344 234.488281 75.902344 233.480469 L 75.902344 69.898438 C 75.902344 68.890625 76 67.894531 76.195312 66.90625 C 76.390625 65.917969 76.683594 64.960938 77.066406 64.03125 C 77.453125 63.101562 77.925781 62.214844 78.484375 61.378906 C 79.042969 60.542969 79.679688 59.765625 80.390625 59.054688 C 81.105469 58.34375 81.878906 57.707031 82.714844 57.148438 C 83.554688 56.589844 84.4375 56.117188 85.367188 55.730469 C 86.296875 55.34375 87.257812 55.054688 88.246094 54.859375 C 89.230469 54.660156 90.230469 54.5625 91.234375 54.5625 Z M 91.234375 54.5625 " fill-opacity="1" fill-rule="nonzero"/></g><g clip-path="url(#4d40f4dc4e)"><path fill="#8aa4c2" d="M 89.355469 136.285156 C 89.503906 137.066406 89.425781 137.777344 89.464844 138.558594 C 89.5 139.320312 89.863281 140 90 140.742188 C 90.289062 142.347656 91.019531 143.984375 91.605469 145.53125 C 92.179688 147.035156 92.898438 148.421875 94.046875 149.554688 C 94.570312 150.074219 94.878906 150.613281 95.246094 151.242188 C 95.625 151.882812 96.347656 152.40625 96.871094 152.933594 C 97.433594 153.503906 97.945312 154.007812 98.679688 154.339844 C 99.082031 154.519531 99.484375 154.691406 99.871094 154.902344 C 100.007812 154.875 100.160156 154.816406 100.3125 154.835938 C 100.578125 154.871094 100.804688 154.976562 101.035156 155.117188 C 101.496094 155.398438 101.753906 155.878906 102.164062 156.179688 C 102.648438 156.535156 103.265625 156.625 103.765625 156.957031 C 104.296875 157.316406 104.867188 157.667969 105.386719 158.046875 C 106.289062 158.707031 107.257812 159.171875 108.082031 159.960938 C 108.199219 160.070312 108.308594 160.183594 108.417969 160.300781 C 109.527344 161.023438 110.710938 161.636719 111.777344 162.433594 C 112.449219 162.933594 113.058594 163.507812 113.703125 164.039062 C 114.214844 164.457031 114.78125 164.800781 115.277344 165.234375 C 116.410156 166.226562 117.558594 167.3125 118.566406 168.429688 C 119.617188 169.597656 120.519531 170.929688 121.273438 172.304688 C 121.578125 172.855469 121.820312 173.386719 121.863281 174.015625 C 121.921875 174.832031 122.292969 175.371094 122.597656 176.117188 C 122.855469 176.746094 122.777344 177.347656 122.921875 177.996094 C 123.085938 178.746094 123.273438 179.507812 123.304688 180.28125 C 123.335938 180.988281 123.152344 181.617188 122.945312 182.289062 C 122.730469 182.976562 122.726562 183.667969 122.652344 184.375 C 122.5625 185.191406 122.542969 186.011719 122.460938 186.824219 C 122.386719 187.554688 122.542969 188.273438 122.289062 188.980469 C 122.039062 189.675781 121.46875 190.148438 120.949219 190.652344 C 120.566406 191.023438 120.160156 191.40625 119.6875 191.65625 C 118.960938 192.046875 117.332031 190.324219 118.195312 189.855469 C 118.871094 189.488281 119.324219 188.78125 119.902344 188.296875 C 120.253906 188.003906 120.695312 187.847656 120.832031 187.359375 C 120.9375 186.980469 120.84375 186.539062 120.921875 186.148438 C 121.082031 185.34375 121.367188 184.566406 121.464844 183.753906 C 121.570312 182.9375 121.582031 182.167969 121.839844 181.378906 C 122.152344 180.410156 122.21875 179.558594 121.964844 178.5625 C 121.773438 177.78125 121.625 176.988281 121.4375 176.21875 C 121.242188 175.40625 120.554688 174.765625 120.359375 173.945312 C 120.261719 173.519531 120.347656 173.109375 120.144531 172.699219 C 119.96875 172.339844 119.730469 172 119.511719 171.667969 C 118.089844 169.492188 116.199219 167.804688 114.203125 166.214844 C 113.402344 165.804688 112.507812 165.640625 111.742188 165.097656 C 111.269531 164.761719 110.777344 164.441406 110.324219 164.082031 C 110.121094 163.917969 109.957031 163.734375 109.800781 163.542969 C 109.734375 163.523438 109.667969 163.496094 109.605469 163.464844 C 109.132812 163.21875 108.742188 163.105469 108.347656 162.699219 C 107.964844 162.308594 107.644531 161.828125 107.394531 161.34375 C 107.371094 161.300781 107.351562 161.257812 107.328125 161.214844 C 107.25 161.160156 107.171875 161.101562 107.101562 161.039062 C 106.558594 160.59375 106.078125 160.074219 105.484375 159.699219 C 104.714844 159.207031 103.910156 158.796875 103.109375 158.378906 C 102.871094 158.285156 102.628906 158.183594 102.390625 158.058594 C 101.90625 157.808594 101.46875 157.535156 101.066406 157.164062 C 101.039062 157.136719 101.007812 157.105469 100.976562 157.074219 C 100.640625 156.792969 100.316406 156.496094 99.953125 156.242188 C 99.386719 155.851562 98.6875 155.667969 98.085938 155.328125 C 96.839844 154.621094 95.882812 153.425781 94.863281 152.441406 C 94.308594 151.910156 94.035156 151.347656 93.632812 150.714844 C 93.28125 150.164062 92.71875 149.789062 92.296875 149.289062 C 91.347656 148.160156 90.671875 146.683594 90.144531 145.3125 C 89.835938 144.511719 89.570312 143.691406 89.289062 142.878906 C 89.070312 142.242188 88.667969 141.644531 88.515625 140.988281 C 88.40625 140.515625 88.40625 140.039062 88.269531 139.566406 C 88.167969 139.195312 88.035156 138.828125 87.957031 138.449219 C 87.8125 137.726562 87.960938 137.019531 87.886719 136.292969 C 87.816406 135.535156 87.597656 134.820312 87.589844 134.054688 C 87.582031 133.410156 87.625 132.761719 87.703125 132.125 C 87.796875 131.382812 87.738281 130.761719 88.070312 130.082031 C 88.386719 129.429688 88.667969 128.761719 88.96875 128.101562 C 89.121094 127.761719 89.261719 127.390625 89.464844 127.078125 C 89.609375 126.851562 89.769531 126.738281 89.835938 126.480469 C 89.902344 126.21875 89.824219 125.949219 89.882812 125.683594 C 89.949219 125.40625 90.101562 125.246094 90.230469 125.003906 C 90.554688 124.398438 90.59375 123.730469 91 123.136719 C 91.410156 122.539062 91.832031 121.890625 92.277344 121.328125 C 93.144531 120.230469 94.332031 119.382812 95.339844 118.421875 C 96.03125 117.761719 97.863281 119.519531 97.210938 120.109375 C 95.976562 121.222656 94.75 122.28125 93.59375 123.46875 C 93 124.074219 92.339844 124.554688 92.019531 125.363281 C 91.875 125.71875 91.757812 125.945312 91.558594 126.265625 C 91.296875 126.683594 91.402344 126.855469 91.371094 127.316406 C 91.332031 127.953125 90.800781 128.570312 90.539062 129.144531 C 90.203125 129.882812 89.835938 130.617188 89.519531 131.359375 C 89.257812 131.976562 89.289062 132.933594 89.226562 133.605469 C 89.144531 134.519531 89.1875 135.386719 89.355469 136.285156 Z M 120.609375 108.847656 C 120.460938 109.578125 120.710938 110.25 120.800781 110.972656 C 120.90625 111.773438 120.789062 112.5 121.074219 113.261719 C 121.261719 113.75 121.09375 114.339844 121.097656 114.878906 C 121.101562 115.589844 121.039062 116.300781 121.050781 117.015625 C 121.082031 118.699219 120.597656 120.46875 120.289062 122.121094 C 120.136719 122.921875 119.960938 123.683594 119.714844 124.457031 C 119.496094 125.136719 119.527344 125.828125 119.285156 126.488281 C 119.042969 127.144531 118.8125 127.863281 118.492188 128.488281 C 118.285156 128.890625 118.027344 129.027344 117.761719 129.359375 C 117.554688 129.621094 117.484375 130.003906 117.21875 130.214844 C 117.035156 130.359375 116.738281 130.417969 116.53125 130.558594 C 116.246094 130.75 115.992188 130.984375 115.71875 131.191406 C 115.078125 131.667969 114.386719 132.050781 113.804688 132.605469 C 113.285156 133.089844 112.714844 133.515625 112.042969 133.757812 C 111.273438 134.035156 110.433594 134.003906 109.636719 134.160156 C 107.960938 134.480469 106.695312 135.507812 104.933594 134.816406 C 104.167969 134.511719 103.578125 134.039062 102.867188 133.652344 C 102.054688 133.210938 101.230469 132.890625 100.484375 132.332031 C 99.792969 131.804688 99.078125 131.257812 98.449219 130.660156 C 97.957031 130.199219 97.753906 129.714844 97.679688 129.0625 C 97.628906 128.585938 97.425781 128.238281 97.324219 127.765625 C 97.300781 127.648438 96.871094 127.257812 96.851562 127.5 C 96.71875 129.035156 97.039062 130.089844 98.066406 131.238281 C 99.296875 132.609375 100.332031 133.929688 102.023438 134.773438 C 103.488281 135.503906 104.773438 136.402344 106.472656 136.464844 C 108.269531 136.53125 109.804688 135.546875 111.566406 135.371094 C 112.335938 135.292969 113.007812 135.203125 113.679688 134.792969 C 114.339844 134.386719 114.839844 133.824219 115.433594 133.347656 C 116.121094 132.800781 116.902344 132.234375 117.632812 131.746094 C 117.914062 131.554688 118.304688 131.484375 118.546875 131.238281 C 118.808594 130.972656 118.875 130.574219 119.128906 130.289062 C 119.636719 129.714844 119.871094 129.15625 120.199219 128.457031 C 120.378906 128.074219 120.554688 127.671875 120.761719 127.300781 C 120.960938 126.949219 120.992188 126.667969 121.125 126.28125 C 121.414062 125.441406 121.875 124.773438 122.066406 123.886719 C 122.289062 122.875 122.484375 121.855469 122.683594 120.835938 C 123.046875 118.988281 123.332031 116.984375 122.625 115.1875 C 122.484375 114.828125 122.28125 114.453125 122.15625 114.101562 C 122 113.683594 122.085938 112.996094 122.097656 112.550781 C 122.125 111.433594 121.910156 110.394531 121.613281 109.316406 C 121.550781 109.085938 120.714844 108.351562 120.609375 108.847656 Z M 120.609375 108.847656 " fill-opacity="1" fill-rule="nonzero"/></g><g clip-path="url(#a9583e8a1e)"><path fill="#8aa4c2" d="M 180.285156 136.285156 C 180.429688 137.066406 180.351562 137.777344 180.390625 138.558594 C 180.429688 139.320312 180.792969 140 180.925781 140.742188 C 181.21875 142.347656 181.945312 143.984375 182.535156 145.53125 C 183.109375 147.035156 183.828125 148.421875 184.972656 149.554688 C 185.496094 150.074219 185.808594 150.613281 186.175781 151.242188 C 186.550781 151.882812 187.273438 152.40625 187.800781 152.933594 C 188.359375 153.503906 188.871094 154.007812 189.609375 154.339844 C 190.011719 154.519531 190.414062 154.691406 190.800781 154.902344 C 190.933594 154.875 191.089844 154.816406 191.238281 154.835938 C 191.503906 154.871094 191.730469 154.976562 191.960938 155.117188 C 192.425781 155.398438 192.679688 155.878906 193.089844 156.179688 C 193.574219 156.535156 194.195312 156.625 194.695312 156.957031 C 195.226562 157.316406 195.792969 157.667969 196.316406 158.046875 C 197.21875 158.707031 198.183594 159.171875 199.011719 159.960938 C 199.125 160.070312 199.238281 160.183594 199.347656 160.300781 C 200.457031 161.023438 201.640625 161.636719 202.707031 162.433594 C 203.378906 162.933594 203.984375 163.507812 204.632812 164.039062 C 205.140625 164.457031 205.707031 164.800781 206.203125 165.234375 C 207.339844 166.226562 208.484375 167.3125 209.492188 168.429688 C 210.546875 169.597656 211.445312 170.929688 212.203125 172.304688 C 212.503906 172.855469 212.75 173.386719 212.792969 174.015625 C 212.851562 174.832031 213.222656 175.371094 213.523438 176.117188 C 213.78125 176.746094 213.707031 177.347656 213.847656 177.996094 C 214.015625 178.746094 214.203125 179.507812 214.234375 180.28125 C 214.265625 180.988281 214.082031 181.617188 213.875 182.289062 C 213.660156 182.976562 213.65625 183.667969 213.578125 184.375 C 213.488281 185.191406 213.472656 186.011719 213.390625 186.824219 C 213.316406 187.554688 213.472656 188.273438 213.21875 188.980469 C 212.96875 189.675781 212.398438 190.148438 211.875 190.652344 C 211.492188 191.023438 211.089844 191.40625 210.617188 191.65625 C 209.890625 192.046875 208.261719 190.324219 209.125 189.855469 C 209.796875 189.488281 210.25 188.78125 210.832031 188.296875 C 211.183594 188.003906 211.625 187.847656 211.761719 187.359375 C 211.863281 186.980469 211.769531 186.539062 211.847656 186.148438 C 212.011719 185.34375 212.292969 184.566406 212.394531 183.753906 C 212.496094 182.9375 212.511719 182.167969 212.765625 181.378906 C 213.082031 180.410156 213.144531 179.558594 212.894531 178.5625 C 212.699219 177.78125 212.554688 176.988281 212.367188 176.21875 C 212.171875 175.40625 211.484375 174.765625 211.289062 173.945312 C 211.1875 173.519531 211.277344 173.109375 211.074219 172.699219 C 210.898438 172.339844 210.65625 172 210.4375 171.667969 C 209.019531 169.492188 207.128906 167.804688 205.132812 166.214844 C 204.332031 165.804688 203.4375 165.640625 202.667969 165.097656 C 202.199219 164.761719 201.703125 164.441406 201.253906 164.082031 C 201.050781 163.917969 200.886719 163.734375 200.730469 163.542969 C 200.660156 163.523438 200.597656 163.496094 200.53125 163.464844 C 200.0625 163.21875 199.671875 163.105469 199.273438 162.699219 C 198.894531 162.308594 198.574219 161.828125 198.320312 161.34375 C 198.300781 161.300781 198.277344 161.257812 198.253906 161.214844 C 198.179688 161.160156 198.101562 161.101562 198.027344 161.039062 C 197.484375 160.59375 197.007812 160.074219 196.410156 159.699219 C 195.644531 159.207031 194.839844 158.796875 194.035156 158.378906 C 193.796875 158.285156 193.558594 158.183594 193.316406 158.058594 C 192.835938 157.808594 192.398438 157.535156 191.996094 157.164062 C 191.964844 157.136719 191.933594 157.105469 191.90625 157.074219 C 191.566406 156.792969 191.246094 156.496094 190.882812 156.242188 C 190.316406 155.851562 189.613281 155.667969 189.015625 155.328125 C 187.769531 154.621094 186.8125 153.425781 185.789062 152.441406 C 185.238281 151.910156 184.960938 151.347656 184.558594 150.714844 C 184.210938 150.164062 183.644531 149.789062 183.226562 149.289062 C 182.273438 148.160156 181.601562 146.683594 181.074219 145.3125 C 180.765625 144.511719 180.496094 143.691406 180.21875 142.878906 C 180 142.242188 179.597656 141.644531 179.445312 140.988281 C 179.335938 140.515625 179.332031 140.039062 179.199219 139.566406 C 179.09375 139.195312 178.960938 138.828125 178.886719 138.449219 C 178.738281 137.726562 178.886719 137.019531 178.816406 136.292969 C 178.742188 135.535156 178.523438 134.820312 178.515625 134.054688 C 178.511719 133.410156 178.550781 132.761719 178.632812 132.125 C 178.726562 131.382812 178.667969 130.761719 179 130.082031 C 179.316406 129.429688 179.59375 128.761719 179.898438 128.101562 C 180.050781 127.761719 180.1875 127.390625 180.390625 127.078125 C 180.539062 126.851562 180.699219 126.738281 180.765625 126.480469 C 180.832031 126.21875 180.75 125.949219 180.8125 125.683594 C 180.875 125.40625 181.03125 125.246094 181.160156 125.003906 C 181.484375 124.398438 181.519531 123.730469 181.929688 123.136719 C 182.335938 122.539062 182.761719 121.890625 183.207031 121.328125 C 184.074219 120.230469 185.261719 119.382812 186.269531 118.421875 C 186.960938 117.761719 188.789062 119.519531 188.136719 120.109375 C 186.90625 121.222656 185.679688 122.28125 184.519531 123.46875 C 183.929688 124.074219 183.269531 124.554688 182.945312 125.363281 C 182.804688 125.71875 182.6875 125.945312 182.484375 126.265625 C 182.226562 126.683594 182.328125 126.855469 182.300781 127.316406 C 182.261719 127.953125 181.730469 128.570312 181.46875 129.144531 C 181.132812 129.882812 180.761719 130.617188 180.449219 131.359375 C 180.183594 131.976562 180.21875 132.933594 180.15625 133.605469 C 180.074219 134.519531 180.117188 135.386719 180.285156 136.285156 Z M 211.539062 108.847656 C 211.386719 109.578125 211.636719 110.25 211.730469 110.972656 C 211.832031 111.773438 211.71875 112.5 212.003906 113.261719 C 212.191406 113.75 212.019531 114.339844 212.023438 114.878906 C 212.027344 115.589844 211.96875 116.300781 211.980469 117.015625 C 212.011719 118.699219 211.527344 120.46875 211.214844 122.121094 C 211.066406 122.921875 210.890625 123.683594 210.644531 124.457031 C 210.425781 125.136719 210.453125 125.828125 210.210938 126.488281 C 209.96875 127.144531 209.742188 127.863281 209.421875 128.488281 C 209.210938 128.890625 208.953125 129.027344 208.691406 129.359375 C 208.480469 129.621094 208.410156 130.003906 208.144531 130.214844 C 207.960938 130.359375 207.667969 130.417969 207.460938 130.558594 C 207.175781 130.75 206.917969 130.984375 206.644531 131.191406 C 206.003906 131.667969 205.316406 132.050781 204.730469 132.605469 C 204.214844 133.089844 203.644531 133.515625 202.96875 133.757812 C 202.203125 134.035156 201.359375 134.003906 200.5625 134.160156 C 198.890625 134.480469 197.625 135.507812 195.863281 134.816406 C 195.09375 134.511719 194.507812 134.039062 193.792969 133.652344 C 192.984375 133.210938 192.15625 132.890625 191.414062 132.332031 C 190.722656 131.804688 190.007812 131.257812 189.375 130.660156 C 188.886719 130.199219 188.683594 129.714844 188.609375 129.0625 C 188.554688 128.585938 188.355469 128.238281 188.253906 127.765625 C 188.226562 127.648438 187.800781 127.257812 187.777344 127.5 C 187.648438 129.035156 187.96875 130.089844 188.996094 131.238281 C 190.226562 132.609375 191.261719 133.929688 192.953125 134.773438 C 194.417969 135.503906 195.703125 136.402344 197.402344 136.464844 C 199.199219 136.53125 200.730469 135.546875 202.492188 135.371094 C 203.261719 135.292969 203.9375 135.203125 204.609375 134.792969 C 205.269531 134.386719 205.765625 133.824219 206.363281 133.347656 C 207.050781 132.800781 207.828125 132.234375 208.558594 131.746094 C 208.839844 131.554688 209.234375 131.484375 209.476562 131.238281 C 209.734375 130.972656 209.804688 130.574219 210.054688 130.289062 C 210.5625 129.714844 210.796875 129.15625 211.125 128.457031 C 211.308594 128.074219 211.484375 127.671875 211.691406 127.300781 C 211.890625 126.949219 211.921875 126.667969 212.054688 126.28125 C 212.34375 125.441406 212.800781 124.773438 212.996094 123.886719 C 213.214844 122.875 213.414062 121.855469 213.613281 120.835938 C 213.976562 118.988281 214.261719 116.984375 213.554688 115.1875 C 213.414062 114.828125 213.210938 114.453125 213.082031 114.101562 C 212.929688 113.683594 213.011719 112.996094 213.023438 112.550781 C 213.054688 111.433594 212.835938 110.394531 212.542969 109.316406 C 212.480469 109.085938 211.644531 108.351562 211.539062 108.847656 Z M 211.539062 108.847656 " fill-opacity="1" fill-rule="nonzero"/></g></svg>