<svg xmlns="http://www.w3.org/2000/svg" xmlns:xlink="http://www.w3.org/1999/xlink" width="262" zoomAndPan="magnify" viewBox="0 0 196.5 196.499993" height="262" preserveAspectRatio="xMidYMid meet" version="1.0"><defs><clipPath id="4cd9a85c2d"><path d="M 0 0 L 195.285156 0 L 195.285156 195.285156 L 0 195.285156 Z M 0 0 " clip-rule="nonzero"/></clipPath><clipPath id="1003350f5a"><path d="M 97.644531 0 C 43.714844 0 0 43.714844 0 97.644531 C 0 151.570312 43.714844 195.285156 97.644531 195.285156 C 151.570312 195.285156 195.285156 151.570312 195.285156 97.644531 C 195.285156 43.714844 151.570312 0 97.644531 0 Z M 97.644531 0 " clip-rule="nonzero"/></clipPath><clipPath id="d8d499f264"><path d="M 0 0 L 195.285156 0 L 195.285156 195.285156 L 0 195.285156 Z M 0 0 " clip-rule="nonzero"/></clipPath><clipPath id="cd4aea1cde"><path d="M 97.644531 0 C 43.714844 0 0 43.714844 0 97.644531 C 0 151.570312 43.714844 195.285156 97.644531 195.285156 C 151.570312 195.285156 195.285156 151.570312 195.285156 97.644531 C 195.285156 43.714844 151.570312 0 97.644531 0 Z M 97.644531 0 " clip-rule="nonzero"/></clipPath><clipPath id="38b20a8690"><rect x="0" width="196" y="0" height="196"/></clipPath><clipPath id="dd6b86836b"><path d="M 56.164062 34.496094 L 167.632812 34.496094 L 167.632812 160.925781 L 56.164062 160.925781 Z M 56.164062 34.496094 " clip-rule="nonzero"/></clipPath><clipPath id="a6e74c509d"><path d="M 70.433594 86.015625 L 125 86.015625 L 125 109.207031 L 70.433594 109.207031 Z M 70.433594 86.015625 " clip-rule="nonzero"/></clipPath></defs><g clip-path="url(#4cd9a85c2d)"><g clip-path="url(#1003350f5a)"><g transform="matrix(1, 0, 0, 1, 0, 0)"><g clip-path="url(#38b20a8690)"><g clip-path="url(#d8d499f264)"><g clip-path="url(#cd4aea1cde)"><path fill="#f5efeb" d="M 0 0 L 195.285156 0 L 195.285156 195.285156 L 0 195.285156 Z M 0 0 " fill-opacity="1" fill-rule="nonzero"/></g></g></g></g></g></g><g clip-path="url(#dd6b86836b)"><path fill="#647395" d="M 163.03125 89.757812 L 70.28125 36.207031 C 67.347656 34.511719 63.84375 34.511719 60.90625 36.207031 C 57.972656 37.902344 56.21875 40.9375 56.21875 44.328125 L 56.21875 151.425781 C 56.21875 154.8125 57.972656 157.847656 60.90625 159.542969 C 62.375 160.390625 63.984375 160.816406 65.59375 160.816406 C 67.203125 160.816406 68.816406 160.390625 70.28125 159.542969 L 163.03125 105.996094 C 165.96875 104.300781 167.71875 101.265625 167.71875 97.875 C 167.71875 94.484375 165.96875 91.449219 163.03125 89.757812 Z M 163.03125 89.757812 " fill-opacity="1" fill-rule="nonzero"/></g><g clip-path="url(#a6e74c509d)"><path fill="#e7e6e5" d="M 106.683594 87.167969 C 106.175781 87.261719 105.714844 87.210938 105.207031 87.238281 C 104.710938 87.261719 104.265625 87.496094 103.785156 87.585938 C 102.738281 87.773438 101.675781 88.246094 100.671875 88.632812 C 99.691406 89.003906 98.792969 89.472656 98.054688 90.214844 C 97.71875 90.554688 97.367188 90.757812 96.960938 90.996094 C 96.542969 91.242188 96.203125 91.710938 95.859375 92.050781 C 95.488281 92.417969 95.160156 92.75 94.945312 93.226562 C 94.828125 93.492188 94.71875 93.753906 94.578125 94.003906 C 94.597656 94.089844 94.636719 94.191406 94.621094 94.289062 C 94.601562 94.460938 94.53125 94.609375 94.441406 94.757812 C 94.253906 95.058594 93.945312 95.226562 93.75 95.492188 C 93.515625 95.808594 93.457031 96.210938 93.242188 96.535156 C 93.011719 96.882812 92.78125 97.25 92.535156 97.589844 C 92.105469 98.175781 91.804688 98.804688 91.292969 99.34375 C 91.21875 99.417969 91.144531 99.488281 91.070312 99.558594 C 90.601562 100.28125 90.203125 101.050781 89.683594 101.742188 C 89.359375 102.179688 88.984375 102.574219 88.640625 102.996094 C 88.367188 103.328125 88.144531 103.695312 87.863281 104.019531 C 87.21875 104.757812 86.511719 105.5 85.785156 106.15625 C 85.023438 106.839844 84.160156 107.425781 83.265625 107.917969 C 82.90625 108.113281 82.5625 108.273438 82.152344 108.300781 C 81.621094 108.339844 81.273438 108.582031 80.789062 108.777344 C 80.378906 108.945312 79.988281 108.894531 79.566406 108.988281 C 79.078125 109.097656 78.582031 109.21875 78.082031 109.238281 C 77.621094 109.257812 77.210938 109.140625 76.773438 109.003906 C 76.328125 108.863281 75.878906 108.863281 75.417969 108.8125 C 74.886719 108.753906 74.355469 108.742188 73.824219 108.691406 C 73.351562 108.640625 72.882812 108.742188 72.425781 108.578125 C 71.972656 108.414062 71.664062 108.046875 71.335938 107.707031 C 71.097656 107.457031 70.847656 107.195312 70.683594 106.886719 C 70.429688 106.414062 71.550781 105.355469 71.855469 105.917969 C 72.09375 106.355469 72.554688 106.648438 72.867188 107.027344 C 73.058594 107.253906 73.164062 107.542969 73.480469 107.628906 C 73.722656 107.699219 74.011719 107.636719 74.265625 107.6875 C 74.789062 107.792969 75.292969 107.976562 75.824219 108.042969 C 76.355469 108.109375 76.851562 108.117188 77.367188 108.285156 C 77.996094 108.488281 78.550781 108.53125 79.199219 108.367188 C 79.707031 108.242188 80.21875 108.144531 80.71875 108.023438 C 81.25 107.898438 81.664062 107.449219 82.199219 107.324219 C 82.476562 107.257812 82.742188 107.316406 83.011719 107.183594 C 83.242188 107.070312 83.464844 106.914062 83.679688 106.769531 C 85.09375 105.847656 86.191406 104.617188 87.226562 103.320312 C 87.492188 102.800781 87.597656 102.21875 87.953125 101.71875 C 88.167969 101.414062 88.378906 101.09375 88.613281 100.800781 C 88.71875 100.667969 88.839844 100.5625 88.960938 100.457031 C 88.972656 100.414062 88.992188 100.371094 89.011719 100.332031 C 89.171875 100.023438 89.246094 99.769531 89.507812 99.511719 C 89.761719 99.265625 90.078125 99.058594 90.390625 98.894531 C 90.417969 98.878906 90.445312 98.867188 90.472656 98.851562 C 90.511719 98.800781 90.550781 98.75 90.589844 98.703125 C 90.878906 98.351562 91.214844 98.039062 91.460938 97.652344 C 91.78125 97.152344 92.046875 96.628906 92.320312 96.109375 C 92.378906 95.953125 92.445312 95.796875 92.527344 95.640625 C 92.691406 95.328125 92.867188 95.042969 93.109375 94.78125 C 93.128906 94.761719 93.148438 94.742188 93.167969 94.722656 C 93.351562 94.503906 93.542969 94.292969 93.707031 94.058594 C 93.960938 93.6875 94.082031 93.234375 94.304688 92.84375 C 94.761719 92.035156 95.539062 91.410156 96.179688 90.746094 C 96.523438 90.386719 96.890625 90.207031 97.300781 89.945312 C 97.660156 89.71875 97.902344 89.351562 98.226562 89.078125 C 98.964844 88.460938 99.921875 88.023438 100.8125 87.679688 C 101.335938 87.480469 101.867188 87.304688 102.394531 87.125 C 102.808594 86.980469 103.199219 86.71875 103.625 86.621094 C 103.929688 86.550781 104.242188 86.546875 104.546875 86.460938 C 104.792969 86.394531 105.027344 86.308594 105.277344 86.257812 C 105.746094 86.164062 106.207031 86.257812 106.675781 86.210938 C 107.167969 86.164062 107.632812 86.023438 108.132812 86.019531 C 108.550781 86.015625 108.972656 86.039062 109.386719 86.09375 C 109.867188 86.152344 110.273438 86.117188 110.714844 86.332031 C 111.140625 86.539062 111.574219 86.71875 112.003906 86.914062 C 112.226562 87.015625 112.464844 87.105469 112.667969 87.238281 C 112.816406 87.332031 112.890625 87.4375 113.058594 87.480469 C 113.226562 87.523438 113.402344 87.46875 113.574219 87.511719 C 113.753906 87.550781 113.859375 87.652344 114.019531 87.734375 C 114.410156 87.949219 114.847656 87.972656 115.230469 88.234375 C 115.621094 88.5 116.039062 88.777344 116.40625 89.066406 C 117.121094 89.632812 117.671875 90.402344 118.296875 91.058594 C 118.726562 91.507812 117.582031 92.695312 117.199219 92.273438 C 116.476562 91.472656 115.789062 90.675781 115.015625 89.921875 C 114.621094 89.539062 114.308594 89.109375 113.785156 88.898438 C 113.550781 88.804688 113.40625 88.730469 113.195312 88.597656 C 112.921875 88.429688 112.8125 88.496094 112.511719 88.476562 C 112.097656 88.453125 111.699219 88.105469 111.324219 87.9375 C 110.847656 87.71875 110.367188 87.480469 109.882812 87.273438 C 109.484375 87.101562 108.859375 87.125 108.425781 87.082031 C 107.832031 87.03125 107.265625 87.058594 106.683594 87.167969 Z M 124.519531 107.488281 C 124.046875 107.386719 123.609375 107.550781 123.140625 107.609375 C 122.617188 107.675781 122.144531 107.601562 121.652344 107.789062 C 121.332031 107.910156 120.949219 107.800781 120.601562 107.800781 C 120.136719 107.804688 119.675781 107.765625 119.210938 107.773438 C 118.117188 107.792969 116.964844 107.476562 115.890625 107.277344 C 115.371094 107.179688 114.875 107.066406 114.371094 106.902344 C 113.929688 106.761719 113.480469 106.78125 113.054688 106.625 C 112.625 106.464844 112.15625 106.316406 111.753906 106.109375 C 111.488281 105.972656 111.398438 105.804688 111.183594 105.632812 C 111.015625 105.5 110.765625 105.453125 110.628906 105.28125 C 110.535156 105.160156 110.496094 104.96875 110.40625 104.835938 C 110.28125 104.648438 110.128906 104.484375 109.996094 104.304688 C 109.683594 103.890625 109.433594 103.441406 109.074219 103.0625 C 108.757812 102.726562 108.484375 102.355469 108.324219 101.914062 C 108.144531 101.417969 108.164062 100.871094 108.066406 100.351562 C 107.855469 99.261719 107.1875 98.441406 107.636719 97.292969 C 107.835938 96.796875 108.144531 96.414062 108.394531 95.949219 C 108.679688 95.421875 108.886719 94.886719 109.253906 94.402344 C 109.59375 93.953125 109.953125 93.488281 110.339844 93.078125 C 110.640625 92.757812 110.953125 92.628906 111.378906 92.578125 C 111.6875 92.546875 111.914062 92.414062 112.222656 92.347656 C 112.296875 92.332031 112.550781 92.054688 112.394531 92.039062 C 111.398438 91.953125 110.710938 92.164062 109.964844 92.832031 C 109.074219 93.628906 108.214844 94.304688 107.667969 95.402344 C 107.191406 96.355469 106.605469 97.191406 106.566406 98.296875 C 106.523438 99.464844 107.164062 100.460938 107.277344 101.605469 C 107.328125 102.105469 107.386719 102.542969 107.652344 102.980469 C 107.917969 103.410156 108.28125 103.734375 108.59375 104.121094 C 108.949219 104.570312 109.316406 105.074219 109.636719 105.550781 C 109.757812 105.734375 109.804688 105.988281 109.964844 106.144531 C 110.136719 106.3125 110.394531 106.359375 110.582031 106.523438 C 110.957031 106.851562 111.320312 107.003906 111.773438 107.21875 C 112.019531 107.335938 112.28125 107.449219 112.523438 107.585938 C 112.753906 107.714844 112.933594 107.734375 113.1875 107.820312 C 113.730469 108.007812 114.164062 108.308594 114.742188 108.433594 C 115.402344 108.578125 116.0625 108.703125 116.726562 108.835938 C 117.929688 109.070312 119.230469 109.253906 120.398438 108.796875 C 120.632812 108.703125 120.875 108.574219 121.101562 108.492188 C 121.375 108.390625 121.824219 108.445312 122.113281 108.453125 C 122.839844 108.472656 123.515625 108.332031 124.214844 108.140625 C 124.363281 108.097656 124.84375 107.554688 124.519531 107.488281 Z M 124.519531 107.488281 " fill-opacity="1" fill-rule="nonzero"/></g></svg>