<svg xmlns="http://www.w3.org/2000/svg" xmlns:xlink="http://www.w3.org/1999/xlink" width="401" zoomAndPan="magnify" viewBox="0 0 300.75 300.749988" height="401" preserveAspectRatio="xMidYMid meet" version="1.0"><defs><clipPath id="1c38498044"><path d="M 0 0 L 300.394531 0 L 300.394531 300.394531 L 0 300.394531 Z M 0 0 " clip-rule="nonzero"/></clipPath><clipPath id="20af5d2698"><path d="M 150.195312 0 C 67.246094 0 0 67.246094 0 150.195312 C 0 233.148438 67.246094 300.394531 150.195312 300.394531 C 233.148438 300.394531 300.394531 233.148438 300.394531 150.195312 C 300.394531 67.246094 233.148438 0 150.195312 0 Z M 150.195312 0 " clip-rule="nonzero"/></clipPath><clipPath id="22d1fd39da"><path d="M 0 0 L 300.394531 0 L 300.394531 300.394531 L 0 300.394531 Z M 0 0 " clip-rule="nonzero"/></clipPath><clipPath id="248248c0ee"><path d="M 150.195312 0 C 67.246094 0 0 67.246094 0 150.195312 C 0 233.148438 67.246094 300.394531 150.195312 300.394531 C 233.148438 300.394531 300.394531 233.148438 300.394531 150.195312 C 300.394531 67.246094 233.148438 0 150.195312 0 Z M 150.195312 0 " clip-rule="nonzero"/></clipPath><clipPath id="b4e3fd832a"><rect x="0" width="301" y="0" height="301"/></clipPath><clipPath id="286f972bb8"><path d="M 88.691406 52 L 260.300781 52 L 260.300781 245.65625 L 88.691406 245.65625 Z M 88.691406 52 " clip-rule="nonzero"/></clipPath><clipPath id="16a1ed9783"><path d="M 108.34375 132.3125 L 192 132.3125 L 192 168.285156 L 108.34375 168.285156 Z M 108.34375 132.3125 " clip-rule="nonzero"/></clipPath></defs><g clip-path="url(#1c38498044)"><g clip-path="url(#20af5d2698)"><g transform="matrix(1, 0, 0, 1, 0, 0)"><g clip-path="url(#b4e3fd832a)"><g clip-path="url(#22d1fd39da)"><g clip-path="url(#248248c0ee)"><path fill="#c8d9e6" d="M 0 0 L 300.394531 0 L 300.394531 300.394531 L 0 300.394531 Z M 0 0 " fill-opacity="1" fill-rule="nonzero"/></g></g></g></g></g></g><g clip-path="url(#286f972bb8)"><path fill="#f5efeb" d="M 253.074219 136.5625 L 110.410156 54.195312 C 105.894531 51.589844 100.503906 51.589844 95.988281 54.195312 C 91.472656 56.804688 88.777344 61.472656 88.777344 66.683594 L 88.777344 231.417969 C 88.777344 236.632812 91.472656 241.300781 95.988281 243.90625 C 98.246094 245.210938 100.722656 245.863281 103.199219 245.863281 C 105.675781 245.863281 108.152344 245.210938 110.410156 243.90625 L 253.074219 161.542969 C 257.589844 158.933594 260.285156 154.265625 260.285156 149.054688 C 260.285156 143.839844 257.589844 139.171875 253.074219 136.5625 Z M 253.074219 136.5625 " fill-opacity="1" fill-rule="nonzero"/></g><g clip-path="url(#16a1ed9783)"><path fill="#8aa4c2" d="M 164.101562 134.082031 C 163.320312 134.226562 162.609375 134.148438 161.828125 134.1875 C 161.066406 134.226562 160.382812 134.589844 159.640625 134.722656 C 158.035156 135.015625 156.402344 135.742188 154.855469 136.332031 C 153.347656 136.90625 151.964844 137.625 150.832031 138.769531 C 150.3125 139.292969 149.769531 139.605469 149.144531 139.972656 C 148.5 140.347656 147.980469 141.070312 147.449219 141.597656 C 146.882812 142.15625 146.375 142.667969 146.046875 143.40625 C 145.863281 143.808594 145.695312 144.210938 145.484375 144.597656 C 145.511719 144.730469 145.570312 144.886719 145.546875 145.035156 C 145.515625 145.300781 145.410156 145.527344 145.269531 145.757812 C 144.984375 146.222656 144.507812 146.476562 144.207031 146.886719 C 143.851562 147.371094 143.757812 147.992188 143.425781 148.492188 C 143.070312 149.023438 142.71875 149.589844 142.339844 150.113281 C 141.679688 151.015625 141.210938 151.980469 140.425781 152.808594 C 140.316406 152.921875 140.203125 153.035156 140.085938 153.144531 C 139.363281 154.253906 138.75 155.4375 137.953125 156.503906 C 137.449219 157.175781 136.878906 157.78125 136.34375 158.429688 C 135.925781 158.9375 135.585938 159.503906 135.148438 160 C 134.160156 161.136719 133.074219 162.28125 131.953125 163.289062 C 130.785156 164.34375 129.457031 165.242188 128.082031 166 C 127.53125 166.300781 126.996094 166.546875 126.371094 166.589844 C 125.554688 166.648438 125.011719 167.019531 124.269531 167.320312 C 123.636719 167.578125 123.035156 167.503906 122.386719 167.644531 C 121.636719 167.8125 120.875 168 120.105469 168.03125 C 119.394531 168.0625 118.765625 167.878906 118.097656 167.671875 C 117.410156 167.457031 116.71875 167.453125 116.007812 167.375 C 115.191406 167.285156 114.375 167.269531 113.558594 167.1875 C 112.832031 167.113281 112.113281 167.269531 111.40625 167.015625 C 110.707031 166.765625 110.234375 166.195312 109.734375 165.671875 C 109.363281 165.289062 108.980469 164.886719 108.730469 164.414062 C 108.339844 163.6875 110.058594 162.058594 110.527344 162.921875 C 110.894531 163.59375 111.605469 164.046875 112.089844 164.628906 C 112.382812 164.980469 112.539062 165.421875 113.027344 165.558594 C 113.40625 165.660156 113.847656 165.566406 114.238281 165.644531 C 115.042969 165.808594 115.816406 166.089844 116.632812 166.191406 C 117.449219 166.292969 118.21875 166.308594 119.003906 166.5625 C 119.976562 166.878906 120.824219 166.941406 121.824219 166.691406 C 122.605469 166.496094 123.398438 166.351562 124.164062 166.164062 C 124.980469 165.96875 125.621094 165.28125 126.4375 165.085938 C 126.863281 164.984375 127.277344 165.074219 127.6875 164.871094 C 128.046875 164.695312 128.382812 164.453125 128.71875 164.234375 C 130.890625 162.816406 132.582031 160.925781 134.171875 158.929688 C 134.582031 158.128906 134.746094 157.234375 135.289062 156.464844 C 135.621094 155.996094 135.945312 155.5 136.304688 155.050781 C 136.46875 154.847656 136.652344 154.683594 136.839844 154.527344 C 136.863281 154.457031 136.890625 154.394531 136.921875 154.328125 C 137.167969 153.859375 137.28125 153.46875 137.683594 153.070312 C 138.074219 152.691406 138.558594 152.371094 139.039062 152.117188 C 139.082031 152.097656 139.125 152.074219 139.167969 152.050781 C 139.226562 151.976562 139.285156 151.898438 139.34375 151.824219 C 139.792969 151.28125 140.308594 150.804688 140.6875 150.207031 C 141.179688 149.441406 141.585938 148.636719 142.007812 147.832031 C 142.097656 147.59375 142.203125 147.355469 142.324219 147.113281 C 142.578125 146.632812 142.847656 146.195312 143.21875 145.792969 C 143.25 145.761719 143.28125 145.730469 143.3125 145.703125 C 143.59375 145.363281 143.890625 145.042969 144.140625 144.679688 C 144.535156 144.113281 144.71875 143.410156 145.058594 142.8125 C 145.765625 141.566406 146.960938 140.609375 147.941406 139.585938 C 148.476562 139.035156 149.035156 138.757812 149.667969 138.355469 C 150.222656 138.007812 150.597656 137.441406 151.09375 137.023438 C 152.226562 136.070312 153.703125 135.398438 155.070312 134.871094 C 155.875 134.5625 156.695312 134.292969 157.507812 134.015625 C 158.144531 133.796875 158.742188 133.394531 159.394531 133.242188 C 159.867188 133.132812 160.34375 133.128906 160.816406 132.996094 C 161.191406 132.890625 161.554688 132.757812 161.9375 132.683594 C 162.660156 132.535156 163.367188 132.683594 164.089844 132.613281 C 164.847656 132.539062 165.5625 132.320312 166.332031 132.3125 C 166.976562 132.308594 167.621094 132.347656 168.261719 132.429688 C 169 132.523438 169.621094 132.464844 170.304688 132.796875 C 170.957031 133.113281 171.625 133.390625 172.285156 133.695312 C 172.625 133.847656 172.992188 133.984375 173.308594 134.1875 C 173.53125 134.335938 173.648438 134.496094 173.90625 134.5625 C 174.164062 134.628906 174.4375 134.546875 174.699219 134.609375 C 174.980469 134.671875 175.136719 134.828125 175.382812 134.957031 C 175.988281 135.28125 176.65625 135.316406 177.25 135.726562 C 177.847656 136.132812 178.496094 136.558594 179.058594 137.003906 C 180.152344 137.871094 181 139.058594 181.960938 140.066406 C 182.625 140.757812 180.867188 142.585938 180.277344 141.933594 C 179.164062 140.703125 178.105469 139.476562 176.917969 138.316406 C 176.3125 137.726562 175.832031 137.066406 175.023438 136.742188 C 174.664062 136.601562 174.441406 136.484375 174.121094 136.28125 C 173.699219 136.023438 173.527344 136.125 173.070312 136.097656 C 172.429688 136.058594 171.816406 135.527344 171.242188 135.265625 C 170.503906 134.929688 169.765625 134.558594 169.023438 134.246094 C 168.40625 133.980469 167.449219 134.015625 166.78125 133.953125 C 165.867188 133.871094 165 133.914062 164.101562 134.082031 Z M 191.535156 165.335938 C 190.808594 165.183594 190.132812 165.433594 189.414062 165.527344 C 188.613281 165.628906 187.886719 165.515625 187.125 165.800781 C 186.632812 165.988281 186.046875 165.816406 185.507812 165.820312 C 184.796875 165.824219 184.085938 165.765625 183.371094 165.777344 C 181.6875 165.808594 179.914062 165.324219 178.265625 165.011719 C 177.464844 164.863281 176.699219 164.6875 175.925781 164.441406 C 175.246094 164.222656 174.558594 164.25 173.898438 164.007812 C 173.238281 163.765625 172.519531 163.539062 171.898438 163.21875 C 171.492188 163.007812 171.355469 162.75 171.023438 162.488281 C 170.761719 162.277344 170.378906 162.207031 170.171875 161.941406 C 170.023438 161.757812 169.964844 161.464844 169.824219 161.257812 C 169.636719 160.972656 169.402344 160.714844 169.195312 160.441406 C 168.714844 159.800781 168.332031 159.113281 167.78125 158.527344 C 167.292969 158.011719 166.871094 157.441406 166.628906 156.765625 C 166.351562 156 166.378906 155.15625 166.226562 154.359375 C 165.90625 152.6875 164.875 151.421875 165.570312 149.660156 C 165.871094 148.890625 166.347656 148.304688 166.734375 147.589844 C 167.171875 146.78125 167.492188 145.953125 168.054688 145.210938 C 168.578125 144.519531 169.128906 143.804688 169.722656 143.171875 C 170.1875 142.683594 170.671875 142.480469 171.320312 142.40625 C 171.796875 142.351562 172.148438 142.152344 172.621094 142.050781 C 172.734375 142.023438 173.128906 141.597656 172.886719 141.574219 C 171.351562 141.445312 170.296875 141.765625 169.148438 142.792969 C 167.777344 144.023438 166.453125 145.058594 165.613281 146.75 C 164.882812 148.214844 163.984375 149.5 163.921875 151.199219 C 163.855469 152.996094 164.835938 154.527344 165.015625 156.289062 C 165.089844 157.058594 165.179688 157.734375 165.59375 158.40625 C 166 159.066406 166.558594 159.5625 167.035156 160.160156 C 167.585938 160.847656 168.148438 161.625 168.640625 162.355469 C 168.832031 162.636719 168.898438 163.03125 169.148438 163.273438 C 169.410156 163.53125 169.8125 163.601562 170.09375 163.851562 C 170.671875 164.359375 171.230469 164.59375 171.929688 164.921875 C 172.3125 165.105469 172.714844 165.28125 173.082031 165.488281 C 173.4375 165.6875 173.714844 165.71875 174.101562 165.851562 C 174.941406 166.140625 175.609375 166.597656 176.496094 166.792969 C 177.511719 167.011719 178.527344 167.210938 179.546875 167.410156 C 181.398438 167.773438 183.402344 168.058594 185.199219 167.351562 C 185.554688 167.210938 185.929688 167.007812 186.28125 166.878906 C 186.703125 166.726562 187.390625 166.808594 187.832031 166.820312 C 188.953125 166.851562 189.992188 166.632812 191.070312 166.339844 C 191.296875 166.277344 192.035156 165.441406 191.535156 165.335938 Z M 191.535156 165.335938 " fill-opacity="1" fill-rule="nonzero"/></g></svg>