<svg xmlns="http://www.w3.org/2000/svg" xmlns:xlink="http://www.w3.org/1999/xlink" width="401" zoomAndPan="magnify" viewBox="0 0 300.75 300.749988" height="401" preserveAspectRatio="xMidYMid meet" version="1.0"><defs><clipPath id="f8c74ce2b0"><path d="M 0 0 L 300.394531 0 L 300.394531 300.394531 L 0 300.394531 Z M 0 0 " clip-rule="nonzero"/></clipPath><clipPath id="73d973896a"><path d="M 150.195312 0 C 67.246094 0 0 67.246094 0 150.195312 C 0 233.148438 67.246094 300.394531 150.195312 300.394531 C 233.148438 300.394531 300.394531 233.148438 300.394531 150.195312 C 300.394531 67.246094 233.148438 0 150.195312 0 Z M 150.195312 0 " clip-rule="nonzero"/></clipPath><clipPath id="f61f27cc0e"><path d="M 0 0 L 300.394531 0 L 300.394531 300.394531 L 0 300.394531 Z M 0 0 " clip-rule="nonzero"/></clipPath><clipPath id="a4edb34e79"><path d="M 150.195312 0 C 67.246094 0 0 67.246094 0 150.195312 C 0 233.148438 67.246094 300.394531 150.195312 300.394531 C 233.148438 300.394531 300.394531 233.148438 300.394531 150.195312 C 300.394531 67.246094 233.148438 0 150.195312 0 Z M 150.195312 0 " clip-rule="nonzero"/></clipPath><clipPath id="2aa0536ada"><rect x="0" width="301" y="0" height="301"/></clipPath><clipPath id="ef677bc659"><path d="M 59.21875 83 L 155 83 L 155 218 L 59.21875 218 Z M 59.21875 83 " clip-rule="nonzero"/></clipPath><clipPath id="b4623291a4"><path d="M 207 82 L 241.316406 82 L 241.316406 219 L 207 219 Z M 207 82 " clip-rule="nonzero"/></clipPath><clipPath id="2c7296495b"><path d="M 68.695312 136.550781 L 132.394531 136.550781 L 132.394531 163.53125 L 68.695312 163.53125 Z M 68.695312 136.550781 " clip-rule="nonzero"/></clipPath></defs><g clip-path="url(#f8c74ce2b0)"><g clip-path="url(#73d973896a)"><g transform="matrix(1, 0, 0, 1, 0, 0)"><g clip-path="url(#2aa0536ada)"><g clip-path="url(#f61f27cc0e)"><g clip-path="url(#a4edb34e79)"><path fill="#c8d9e6" d="M 0 0 L 300.394531 0 L 300.394531 300.394531 L 0 300.394531 Z M 0 0 " fill-opacity="1" fill-rule="nonzero"/></g></g></g></g></g></g><g clip-path="url(#ef677bc659)"><path fill="#f5efeb" d="M 154.175781 89.488281 L 154.175781 211.464844 C 154.175781 215.980469 149.328125 218.832031 145.382812 216.640625 L 102.230469 186.746094 C 101.351562 186.257812 100.359375 186 99.355469 186 L 71.285156 186 C 64.746094 186 59.441406 180.699219 59.441406 174.160156 L 59.441406 126.792969 C 59.441406 120.253906 64.746094 114.949219 71.285156 114.949219 L 99.355469 114.949219 C 100.359375 114.949219 101.351562 114.695312 102.230469 114.207031 L 145.382812 84.3125 C 149.328125 82.121094 154.175781 84.972656 154.175781 89.488281 Z M 154.175781 89.488281 " fill-opacity="1" fill-rule="nonzero"/></g><path fill="#f5efeb" d="M 195.445312 202.109375 C 194.386719 202.109375 193.328125 201.734375 192.484375 200.976562 C 190.65625 199.339844 190.5 196.53125 192.136719 194.703125 C 202.980469 182.605469 208.945312 166.898438 208.945312 150.476562 C 208.945312 134.054688 202.980469 118.347656 192.136719 106.25 C 190.5 104.421875 190.65625 101.613281 192.484375 99.976562 C 194.292969 98.339844 197.105469 98.484375 198.753906 100.320312 C 211.050781 114.050781 217.828125 131.863281 217.828125 150.476562 C 217.828125 169.089844 211.050781 186.902344 198.753906 200.628906 C 197.875 201.609375 196.660156 202.109375 195.445312 202.109375 Z M 195.445312 202.109375 " fill-opacity="1" fill-rule="nonzero"/><path fill="#f5efeb" d="M 178.628906 185.289062 C 177.617188 185.289062 176.601562 184.949219 175.769531 184.246094 C 173.894531 182.667969 173.652344 179.867188 175.230469 177.992188 C 181.699219 170.308594 185.261719 160.539062 185.261719 150.476562 C 185.261719 140.414062 181.699219 130.644531 175.230469 122.960938 C 173.652344 121.085938 173.894531 118.285156 175.769531 116.707031 C 177.640625 115.132812 180.453125 115.363281 182.03125 117.242188 C 189.839844 126.523438 194.144531 138.324219 194.144531 150.476562 C 194.144531 162.628906 189.839844 174.429688 182.03125 183.710938 C 181.152344 184.753906 179.890625 185.289062 178.628906 185.289062 Z M 178.628906 185.289062 " fill-opacity="1" fill-rule="nonzero"/><g clip-path="url(#b4623291a4)"><path fill="#f5efeb" d="M 212.257812 218.921875 C 211.191406 218.921875 210.121094 218.539062 209.265625 217.761719 C 207.453125 216.109375 207.328125 213.300781 208.980469 211.488281 C 224.226562 194.773438 232.628906 173.105469 232.628906 150.476562 C 232.628906 127.847656 224.226562 106.179688 208.980469 89.464844 C 207.328125 87.652344 207.453125 84.84375 209.265625 83.191406 C 211.085938 81.542969 213.890625 81.671875 215.539062 83.480469 C 232.289062 101.832031 241.511719 125.628906 241.511719 150.476562 C 241.511719 175.324219 232.289062 199.121094 215.539062 217.472656 C 214.664062 218.433594 213.460938 218.921875 212.257812 218.921875 Z M 212.257812 218.921875 " fill-opacity="1" fill-rule="nonzero"/></g><path fill="#f5efeb" d="M 178.628906 185.289062 C 177.617188 185.289062 176.601562 184.949219 175.769531 184.246094 C 173.894531 182.667969 173.652344 179.867188 175.230469 177.992188 C 181.699219 170.308594 185.261719 160.539062 185.261719 150.476562 C 185.261719 140.414062 181.699219 130.644531 175.230469 122.960938 C 173.652344 121.085938 173.894531 118.285156 175.769531 116.707031 C 177.640625 115.132812 180.453125 115.363281 182.03125 117.242188 C 189.839844 126.523438 194.144531 138.324219 194.144531 150.476562 C 194.144531 162.628906 189.839844 174.429688 182.03125 183.710938 C 181.152344 184.753906 179.890625 185.289062 178.628906 185.289062 Z M 178.628906 185.289062 " fill-opacity="1" fill-rule="nonzero"/><g clip-path="url(#2c7296495b)"><path fill="#8aa4c2" d="M 111.238281 137.898438 C 110.644531 138.011719 110.101562 137.953125 109.503906 137.980469 C 108.921875 138.011719 108.402344 138.289062 107.835938 138.390625 C 106.613281 138.613281 105.363281 139.167969 104.183594 139.617188 C 103.035156 140.054688 101.980469 140.601562 101.113281 141.476562 C 100.71875 141.878906 100.304688 142.113281 99.828125 142.394531 C 99.335938 142.683594 98.9375 143.234375 98.535156 143.632812 C 98.101562 144.0625 97.714844 144.453125 97.464844 145.011719 C 97.324219 145.320312 97.195312 145.628906 97.035156 145.921875 C 97.054688 146.023438 97.101562 146.144531 97.085938 146.257812 C 97.058594 146.460938 96.976562 146.632812 96.871094 146.808594 C 96.652344 147.164062 96.289062 147.359375 96.058594 147.671875 C 95.789062 148.039062 95.71875 148.511719 95.464844 148.894531 C 95.191406 149.300781 94.925781 149.734375 94.636719 150.128906 C 94.128906 150.820312 93.777344 151.558594 93.175781 152.1875 C 93.09375 152.277344 93.003906 152.363281 92.914062 152.445312 C 92.363281 153.289062 91.894531 154.195312 91.289062 155.007812 C 90.90625 155.519531 90.46875 155.984375 90.0625 156.476562 C 89.742188 156.867188 89.480469 157.296875 89.148438 157.675781 C 88.394531 158.542969 87.566406 159.417969 86.710938 160.1875 C 85.820312 160.988281 84.804688 161.675781 83.757812 162.253906 C 83.335938 162.484375 82.929688 162.671875 82.449219 162.703125 C 81.828125 162.75 81.414062 163.03125 80.847656 163.261719 C 80.367188 163.457031 79.90625 163.398438 79.410156 163.511719 C 78.839844 163.636719 78.257812 163.78125 77.667969 163.804688 C 77.128906 163.824219 76.648438 163.6875 76.136719 163.527344 C 75.613281 163.363281 75.085938 163.363281 74.546875 163.304688 C 73.921875 163.234375 73.296875 163.222656 72.675781 163.160156 C 72.121094 163.101562 71.570312 163.222656 71.03125 163.027344 C 70.5 162.835938 70.140625 162.402344 69.757812 162.003906 C 69.472656 161.710938 69.183594 161.402344 68.992188 161.042969 C 68.691406 160.488281 70.003906 159.246094 70.363281 159.90625 C 70.644531 160.417969 71.183594 160.765625 71.554688 161.207031 C 71.777344 161.476562 71.898438 161.8125 72.269531 161.914062 C 72.558594 161.996094 72.894531 161.921875 73.195312 161.984375 C 73.808594 162.105469 74.398438 162.324219 75.019531 162.398438 C 75.644531 162.476562 76.230469 162.488281 76.832031 162.683594 C 77.574219 162.921875 78.21875 162.972656 78.980469 162.78125 C 79.578125 162.632812 80.183594 162.519531 80.769531 162.378906 C 81.390625 162.230469 81.878906 161.707031 82.503906 161.554688 C 82.828125 161.480469 83.140625 161.546875 83.457031 161.390625 C 83.730469 161.257812 83.988281 161.074219 84.242188 160.90625 C 85.902344 159.824219 87.1875 158.382812 88.402344 156.859375 C 88.714844 156.246094 88.839844 155.5625 89.253906 154.980469 C 89.511719 154.621094 89.753906 154.242188 90.03125 153.898438 C 90.15625 153.742188 90.296875 153.617188 90.441406 153.5 C 90.457031 153.449219 90.476562 153.398438 90.5 153.347656 C 90.6875 152.988281 90.777344 152.691406 91.082031 152.390625 C 91.382812 152.097656 91.75 151.855469 92.117188 151.664062 C 92.152344 151.644531 92.183594 151.628906 92.214844 151.609375 C 92.261719 151.554688 92.304688 151.492188 92.351562 151.4375 C 92.691406 151.023438 93.085938 150.660156 93.375 150.203125 C 93.75 149.617188 94.0625 149.003906 94.382812 148.394531 C 94.453125 148.210938 94.53125 148.027344 94.625 147.84375 C 94.816406 147.476562 95.023438 147.140625 95.308594 146.835938 C 95.328125 146.8125 95.351562 146.789062 95.378906 146.765625 C 95.589844 146.507812 95.820312 146.261719 96.011719 145.988281 C 96.308594 145.554688 96.449219 145.019531 96.710938 144.558594 C 97.25 143.609375 98.164062 142.878906 98.910156 142.101562 C 99.316406 141.679688 99.746094 141.46875 100.230469 141.160156 C 100.648438 140.894531 100.9375 140.464844 101.316406 140.144531 C 102.179688 139.417969 103.304688 138.902344 104.351562 138.5 C 104.964844 138.265625 105.589844 138.0625 106.207031 137.847656 C 106.695312 137.679688 107.152344 137.375 107.648438 137.257812 C 108.011719 137.175781 108.375 137.171875 108.734375 137.070312 C 109.019531 136.992188 109.296875 136.890625 109.589844 136.832031 C 110.140625 136.71875 110.679688 136.832031 111.230469 136.777344 C 111.808594 136.722656 112.355469 136.554688 112.941406 136.550781 C 113.433594 136.546875 113.925781 136.578125 114.414062 136.636719 C 114.976562 136.710938 115.453125 136.664062 115.972656 136.917969 C 116.472656 137.160156 116.980469 137.375 117.484375 137.601562 C 117.742188 137.71875 118.023438 137.828125 118.265625 137.980469 C 118.4375 138.09375 118.523438 138.214844 118.722656 138.265625 C 118.917969 138.316406 119.125 138.253906 119.328125 138.300781 C 119.539062 138.351562 119.660156 138.46875 119.847656 138.566406 C 120.308594 138.816406 120.820312 138.84375 121.273438 139.152344 C 121.726562 139.464844 122.222656 139.789062 122.652344 140.128906 C 123.488281 140.789062 124.136719 141.695312 124.867188 142.464844 C 125.375 142.992188 124.03125 144.390625 123.582031 143.890625 C 122.734375 142.953125 121.925781 142.015625 121.019531 141.132812 C 120.558594 140.679688 120.191406 140.175781 119.574219 139.929688 C 119.300781 139.820312 119.128906 139.734375 118.882812 139.578125 C 118.5625 139.378906 118.433594 139.460938 118.082031 139.4375 C 117.597656 139.40625 117.125 139 116.6875 138.800781 C 116.125 138.546875 115.5625 138.265625 114.996094 138.023438 C 114.527344 137.824219 113.796875 137.847656 113.285156 137.800781 C 112.585938 137.738281 111.925781 137.773438 111.238281 137.898438 Z M 132.171875 161.746094 C 131.617188 161.632812 131.105469 161.820312 130.554688 161.894531 C 129.941406 161.972656 129.386719 161.882812 128.808594 162.101562 C 128.433594 162.242188 127.984375 162.113281 127.574219 162.117188 C 127.03125 162.121094 126.488281 162.074219 125.941406 162.082031 C 124.65625 162.109375 123.308594 161.738281 122.046875 161.5 C 121.4375 161.386719 120.851562 161.253906 120.261719 161.0625 C 119.746094 160.898438 119.21875 160.917969 118.714844 160.734375 C 118.214844 160.550781 117.664062 160.375 117.191406 160.128906 C 116.878906 159.972656 116.777344 159.773438 116.523438 159.574219 C 116.324219 159.414062 116.03125 159.359375 115.871094 159.160156 C 115.757812 159.019531 115.714844 158.792969 115.609375 158.632812 C 115.460938 158.417969 115.285156 158.222656 115.128906 158.011719 C 114.761719 157.523438 114.46875 157 114.046875 156.554688 C 113.675781 156.160156 113.351562 155.722656 113.167969 155.210938 C 112.957031 154.621094 112.980469 153.980469 112.863281 153.371094 C 112.617188 152.09375 111.832031 151.128906 112.359375 149.785156 C 112.589844 149.199219 112.953125 148.75 113.25 148.207031 C 113.585938 147.589844 113.828125 146.957031 114.257812 146.390625 C 114.65625 145.863281 115.074219 145.316406 115.53125 144.835938 C 115.882812 144.460938 116.253906 144.308594 116.75 144.25 C 117.113281 144.210938 117.378906 144.054688 117.738281 143.980469 C 117.828125 143.960938 118.128906 143.632812 117.941406 143.617188 C 116.773438 143.515625 115.96875 143.761719 115.089844 144.546875 C 114.042969 145.484375 113.035156 146.273438 112.394531 147.566406 C 111.835938 148.683594 111.148438 149.664062 111.101562 150.960938 C 111.050781 152.332031 111.800781 153.5 111.9375 154.84375 C 111.996094 155.433594 112.0625 155.945312 112.378906 156.457031 C 112.6875 156.960938 113.117188 157.34375 113.480469 157.796875 C 113.898438 158.324219 114.328125 158.914062 114.703125 159.472656 C 114.847656 159.6875 114.902344 159.988281 115.089844 160.171875 C 115.292969 160.371094 115.597656 160.421875 115.8125 160.613281 C 116.253906 161.003906 116.679688 161.179688 117.214844 161.433594 C 117.503906 161.570312 117.8125 161.707031 118.09375 161.863281 C 118.363281 162.015625 118.578125 162.039062 118.871094 162.140625 C 119.511719 162.359375 120.023438 162.710938 120.699219 162.859375 C 121.472656 163.027344 122.25 163.175781 123.027344 163.328125 C 124.4375 163.605469 125.964844 163.824219 127.335938 163.285156 C 127.609375 163.175781 127.898438 163.023438 128.164062 162.925781 C 128.484375 162.808594 129.007812 162.871094 129.347656 162.878906 C 130.203125 162.902344 130.996094 162.738281 131.816406 162.511719 C 131.992188 162.464844 132.554688 161.828125 132.171875 161.746094 Z M 132.171875 161.746094 " fill-opacity="1" fill-rule="nonzero"/></g></svg>