<svg xmlns="http://www.w3.org/2000/svg" xmlns:xlink="http://www.w3.org/1999/xlink" width="246" zoomAndPan="magnify" viewBox="0 0 184.5 184.499993" height="246" preserveAspectRatio="xMidYMid meet" version="1.0"><defs><clipPath id="6161fad20c"><path d="M 0 0 L 183.792969 0 L 183.792969 183.792969 L 0 183.792969 Z M 0 0 " clip-rule="nonzero"/></clipPath><clipPath id="9724367463"><path d="M 91.898438 0 C 41.144531 0 0 41.144531 0 91.898438 C 0 142.648438 41.144531 183.792969 91.898438 183.792969 C 142.648438 183.792969 183.792969 142.648438 183.792969 91.898438 C 183.792969 41.144531 142.648438 0 91.898438 0 Z M 91.898438 0 " clip-rule="nonzero"/></clipPath><clipPath id="5b08aa038e"><path d="M 0 0 L 183.792969 0 L 183.792969 183.792969 L 0 183.792969 Z M 0 0 " clip-rule="nonzero"/></clipPath><clipPath id="a96cca20da"><path d="M 91.898438 0 C 41.144531 0 0 41.144531 0 91.898438 C 0 142.648438 41.144531 183.792969 91.898438 183.792969 C 142.648438 183.792969 183.792969 142.648438 183.792969 91.898438 C 183.792969 41.144531 142.648438 0 91.898438 0 Z M 91.898438 0 " clip-rule="nonzero"/></clipPath><clipPath id="c5386bbaf8"><rect x="0" width="184" y="0" height="184"/></clipPath><clipPath id="f0b63b5084"><path d="M 36.234375 51 L 95 51 L 95 133.597656 L 36.234375 133.597656 Z M 36.234375 51 " clip-rule="nonzero"/></clipPath><clipPath id="42e3e9e73f"><path d="M 127 50 L 147.679688 50 L 147.679688 133.597656 L 127 133.597656 Z M 127 50 " clip-rule="nonzero"/></clipPath><clipPath id="ae29e85c01"><path d="M 42.03125 83.546875 L 80.925781 83.546875 L 80.925781 100.003906 L 42.03125 100.003906 Z M 42.03125 83.546875 " clip-rule="nonzero"/></clipPath></defs><g clip-path="url(#6161fad20c)"><g clip-path="url(#9724367463)"><g transform="matrix(1, 0, 0, 1, 0, 0)"><g clip-path="url(#c5386bbaf8)"><g clip-path="url(#5b08aa038e)"><g clip-path="url(#a96cca20da)"><path fill="#f5efeb" d="M 0 0 L 183.792969 0 L 183.792969 183.792969 L 0 183.792969 Z M 0 0 " fill-opacity="1" fill-rule="nonzero"/></g></g></g></g></g></g><g clip-path="url(#f0b63b5084)"><path fill="#647395" d="M 94.332031 54.75 L 94.332031 129.378906 C 94.332031 132.140625 91.363281 133.886719 88.949219 132.546875 L 62.546875 114.253906 C 62.011719 113.957031 61.40625 113.800781 60.789062 113.800781 L 43.613281 113.800781 C 39.613281 113.800781 36.371094 110.554688 36.371094 106.554688 L 36.371094 77.574219 C 36.371094 73.574219 39.613281 70.328125 43.613281 70.328125 L 60.789062 70.328125 C 61.40625 70.328125 62.011719 70.171875 62.546875 69.875 L 88.949219 51.582031 C 91.363281 50.242188 94.332031 51.988281 94.332031 54.75 Z M 94.332031 54.75 " fill-opacity="1" fill-rule="nonzero"/></g><path fill="#647395" d="M 119.578125 123.652344 C 118.933594 123.652344 118.285156 123.425781 117.769531 122.960938 C 116.648438 121.960938 116.554688 120.242188 117.554688 119.125 C 124.1875 111.722656 127.839844 102.113281 127.839844 92.066406 C 127.839844 82.015625 124.1875 72.40625 117.554688 65.003906 C 116.554688 63.886719 116.648438 62.167969 117.769531 61.167969 C 118.875 60.167969 120.59375 60.253906 121.601562 61.378906 C 129.128906 69.777344 133.273438 80.675781 133.273438 92.0625 C 133.273438 103.453125 129.128906 114.351562 121.601562 122.75 C 121.066406 123.351562 120.320312 123.652344 119.578125 123.652344 Z M 119.578125 123.652344 " fill-opacity="1" fill-rule="nonzero"/><path fill="#647395" d="M 109.292969 113.363281 C 108.671875 113.363281 108.050781 113.15625 107.539062 112.726562 C 106.394531 111.761719 106.246094 110.046875 107.210938 108.898438 C 111.171875 104.199219 113.347656 98.21875 113.347656 92.066406 C 113.347656 85.910156 111.171875 79.929688 107.210938 75.230469 C 106.246094 74.082031 106.394531 72.367188 107.539062 71.402344 C 108.6875 70.441406 110.40625 70.582031 111.371094 71.730469 C 116.152344 77.410156 118.78125 84.628906 118.78125 92.066406 C 118.78125 99.5 116.152344 106.71875 111.371094 112.398438 C 110.832031 113.035156 110.0625 113.363281 109.292969 113.363281 Z M 109.292969 113.363281 " fill-opacity="1" fill-rule="nonzero"/><g clip-path="url(#42e3e9e73f)"><path fill="#647395" d="M 129.867188 133.941406 C 129.210938 133.941406 128.558594 133.707031 128.035156 133.230469 C 126.925781 132.21875 126.847656 130.5 127.859375 129.394531 C 137.191406 119.167969 142.328125 105.910156 142.328125 92.066406 C 142.328125 78.21875 137.191406 64.960938 127.859375 54.734375 C 126.847656 53.628906 126.925781 51.910156 128.035156 50.898438 C 129.148438 49.890625 130.863281 49.96875 131.871094 51.074219 C 142.121094 62.300781 147.761719 76.863281 147.761719 92.066406 C 147.761719 107.269531 142.121094 121.828125 131.871094 133.054688 C 131.339844 133.644531 130.601562 133.941406 129.867188 133.941406 Z M 129.867188 133.941406 " fill-opacity="1" fill-rule="nonzero"/></g><path fill="#647395" d="M 109.292969 113.363281 C 108.671875 113.363281 108.050781 113.15625 107.539062 112.726562 C 106.394531 111.761719 106.246094 110.046875 107.210938 108.898438 C 111.171875 104.199219 113.347656 98.21875 113.347656 92.066406 C 113.347656 85.910156 111.171875 79.929688 107.210938 75.230469 C 106.246094 74.082031 106.394531 72.367188 107.539062 71.402344 C 108.6875 70.441406 110.40625 70.582031 111.371094 71.730469 C 116.152344 77.410156 118.78125 84.628906 118.78125 92.066406 C 118.78125 99.5 116.152344 106.71875 111.371094 112.398438 C 110.832031 113.035156 110.0625 113.363281 109.292969 113.363281 Z M 109.292969 113.363281 " fill-opacity="1" fill-rule="nonzero"/><g clip-path="url(#ae29e85c01)"><path fill="#e7e6e5" d="M 68.058594 84.371094 C 67.695312 84.441406 67.363281 84.402344 67 84.421875 C 66.640625 84.441406 66.324219 84.609375 65.976562 84.671875 C 65.226562 84.808594 64.464844 85.148438 63.742188 85.421875 C 63.039062 85.691406 62.394531 86.027344 61.863281 86.5625 C 61.621094 86.804688 61.371094 86.949219 61.078125 87.121094 C 60.777344 87.296875 60.535156 87.636719 60.285156 87.878906 C 60.023438 88.140625 59.785156 88.378906 59.628906 88.722656 C 59.546875 88.914062 59.46875 89.101562 59.367188 89.28125 C 59.382812 89.34375 59.410156 89.414062 59.398438 89.484375 C 59.382812 89.609375 59.332031 89.714844 59.269531 89.824219 C 59.136719 90.039062 58.914062 90.160156 58.773438 90.351562 C 58.605469 90.574219 58.5625 90.863281 58.410156 91.097656 C 58.242188 91.347656 58.078125 91.613281 57.902344 91.855469 C 57.59375 92.277344 57.375 92.726562 57.007812 93.113281 C 56.957031 93.167969 56.902344 93.21875 56.847656 93.269531 C 56.511719 93.789062 56.226562 94.339844 55.851562 94.839844 C 55.621094 95.152344 55.351562 95.433594 55.101562 95.738281 C 54.90625 95.976562 54.746094 96.238281 54.542969 96.472656 C 54.082031 97 53.574219 97.535156 53.054688 98.007812 C 52.507812 98.5 51.886719 98.917969 51.246094 99.269531 C 50.988281 99.414062 50.738281 99.527344 50.445312 99.546875 C 50.066406 99.574219 49.8125 99.746094 49.464844 99.886719 C 49.171875 100.007812 48.890625 99.972656 48.585938 100.039062 C 48.238281 100.117188 47.882812 100.207031 47.523438 100.21875 C 47.191406 100.234375 46.898438 100.148438 46.585938 100.050781 C 46.265625 99.953125 45.941406 99.949219 45.609375 99.914062 C 45.230469 99.871094 44.847656 99.863281 44.464844 99.824219 C 44.125 99.789062 43.792969 99.863281 43.460938 99.746094 C 43.136719 99.628906 42.914062 99.363281 42.679688 99.117188 C 42.507812 98.941406 42.328125 98.75 42.210938 98.53125 C 42.027344 98.191406 42.832031 97.429688 43.050781 97.835938 C 43.222656 98.148438 43.554688 98.359375 43.78125 98.632812 C 43.917969 98.796875 43.992188 99 44.21875 99.066406 C 44.394531 99.113281 44.601562 99.070312 44.785156 99.105469 C 45.160156 99.179688 45.519531 99.3125 45.902344 99.359375 C 46.28125 99.410156 46.640625 99.414062 47.007812 99.535156 C 47.460938 99.679688 47.859375 99.710938 48.324219 99.59375 C 48.6875 99.503906 49.058594 99.433594 49.417969 99.347656 C 49.796875 99.257812 50.097656 98.9375 50.480469 98.84375 C 50.675781 98.796875 50.871094 98.839844 51.0625 98.746094 C 51.230469 98.660156 51.386719 98.550781 51.542969 98.449219 C 52.558594 97.785156 53.34375 96.902344 54.089844 95.96875 C 54.277344 95.597656 54.355469 95.179688 54.609375 94.820312 C 54.765625 94.601562 54.914062 94.371094 55.085938 94.160156 C 55.160156 94.066406 55.246094 93.988281 55.335938 93.914062 C 55.34375 93.882812 55.355469 93.851562 55.371094 93.824219 C 55.484375 93.605469 55.539062 93.421875 55.726562 93.238281 C 55.910156 93.058594 56.136719 92.910156 56.359375 92.792969 C 56.378906 92.78125 56.402344 92.769531 56.421875 92.761719 C 56.449219 92.726562 56.476562 92.6875 56.503906 92.65625 C 56.710938 92.402344 56.953125 92.175781 57.128906 91.898438 C 57.359375 91.542969 57.550781 91.164062 57.746094 90.792969 C 57.789062 90.679688 57.835938 90.566406 57.894531 90.457031 C 58.011719 90.230469 58.140625 90.027344 58.3125 89.839844 C 58.324219 89.824219 58.339844 89.808594 58.355469 89.796875 C 58.484375 89.640625 58.625 89.488281 58.742188 89.320312 C 58.925781 89.054688 59.011719 88.726562 59.171875 88.445312 C 59.5 87.867188 60.058594 87.417969 60.515625 86.941406 C 60.765625 86.683594 61.027344 86.554688 61.324219 86.367188 C 61.578125 86.203125 61.753906 85.941406 61.988281 85.746094 C 62.515625 85.300781 63.207031 84.988281 63.84375 84.742188 C 64.21875 84.597656 64.601562 84.472656 64.980469 84.339844 C 65.277344 84.238281 65.558594 84.050781 65.863281 83.980469 C 66.082031 83.929688 66.304688 83.925781 66.527344 83.867188 C 66.699219 83.816406 66.871094 83.753906 67.050781 83.71875 C 67.386719 83.652344 67.714844 83.71875 68.054688 83.6875 C 68.40625 83.652344 68.742188 83.550781 69.101562 83.546875 C 69.402344 83.542969 69.703125 83.5625 70 83.601562 C 70.347656 83.644531 70.636719 83.617188 70.953125 83.773438 C 71.257812 83.921875 71.570312 84.050781 71.878906 84.191406 C 72.039062 84.261719 72.210938 84.328125 72.355469 84.421875 C 72.460938 84.488281 72.515625 84.566406 72.636719 84.597656 C 72.757812 84.628906 72.882812 84.589844 73.007812 84.617188 C 73.136719 84.648438 73.210938 84.71875 73.324219 84.78125 C 73.609375 84.933594 73.921875 84.949219 74.195312 85.140625 C 74.476562 85.328125 74.777344 85.527344 75.042969 85.734375 C 75.550781 86.140625 75.949219 86.695312 76.398438 87.164062 C 76.707031 87.488281 75.886719 88.34375 75.609375 88.039062 C 75.089844 87.464844 74.597656 86.890625 74.042969 86.351562 C 73.757812 86.074219 73.535156 85.765625 73.15625 85.613281 C 72.992188 85.546875 72.886719 85.492188 72.734375 85.398438 C 72.539062 85.277344 72.460938 85.328125 72.246094 85.3125 C 71.949219 85.292969 71.660156 85.046875 71.390625 84.925781 C 71.046875 84.769531 70.703125 84.59375 70.355469 84.449219 C 70.070312 84.324219 69.621094 84.339844 69.308594 84.3125 C 68.882812 84.273438 68.476562 84.292969 68.058594 84.371094 Z M 80.867188 98.960938 C 80.527344 98.890625 80.210938 99.007812 79.875 99.050781 C 79.5 99.097656 79.160156 99.046875 78.808594 99.179688 C 78.578125 99.265625 78.304688 99.1875 78.050781 99.1875 C 77.71875 99.191406 77.386719 99.160156 77.054688 99.167969 C 76.269531 99.183594 75.441406 98.957031 74.671875 98.8125 C 74.296875 98.742188 73.941406 98.660156 73.578125 98.542969 C 73.261719 98.441406 72.941406 98.457031 72.632812 98.34375 C 72.324219 98.230469 71.988281 98.121094 71.699219 97.972656 C 71.511719 97.875 71.445312 97.753906 71.292969 97.632812 C 71.167969 97.535156 70.992188 97.5 70.890625 97.378906 C 70.824219 97.292969 70.796875 97.15625 70.730469 97.058594 C 70.644531 96.925781 70.535156 96.804688 70.4375 96.675781 C 70.214844 96.378906 70.035156 96.054688 69.777344 95.785156 C 69.550781 95.542969 69.351562 95.277344 69.238281 94.960938 C 69.109375 94.601562 69.121094 94.210938 69.050781 93.839844 C 68.902344 93.058594 68.421875 92.464844 68.746094 91.644531 C 68.886719 91.285156 69.109375 91.011719 69.289062 90.679688 C 69.492188 90.300781 69.644531 89.914062 69.90625 89.566406 C 70.148438 89.246094 70.40625 88.910156 70.683594 88.617188 C 70.898438 88.386719 71.125 88.292969 71.429688 88.257812 C 71.652344 88.234375 71.816406 88.140625 72.035156 88.09375 C 72.089844 88.078125 72.273438 87.878906 72.160156 87.871094 C 71.445312 87.808594 70.953125 87.957031 70.414062 88.4375 C 69.773438 89.011719 69.15625 89.496094 68.765625 90.285156 C 68.425781 90.96875 68.003906 91.570312 67.976562 92.363281 C 67.945312 93.199219 68.402344 93.917969 68.484375 94.738281 C 68.523438 95.097656 68.5625 95.414062 68.753906 95.726562 C 68.945312 96.035156 69.207031 96.265625 69.429688 96.546875 C 69.6875 96.867188 69.949219 97.230469 70.179688 97.570312 C 70.265625 97.703125 70.300781 97.886719 70.414062 97.996094 C 70.539062 98.121094 70.722656 98.152344 70.859375 98.269531 C 71.125 98.507812 71.386719 98.617188 71.714844 98.769531 C 71.890625 98.851562 72.078125 98.9375 72.253906 99.03125 C 72.417969 99.125 72.546875 99.140625 72.726562 99.203125 C 73.121094 99.335938 73.433594 99.550781 73.847656 99.640625 C 74.320312 99.746094 74.792969 99.835938 75.269531 99.929688 C 76.132812 100.097656 77.070312 100.230469 77.90625 99.902344 C 78.074219 99.835938 78.25 99.742188 78.414062 99.683594 C 78.609375 99.609375 78.929688 99.648438 79.136719 99.65625 C 79.660156 99.667969 80.144531 99.566406 80.648438 99.429688 C 80.753906 99.402344 81.097656 99.011719 80.867188 98.960938 Z M 80.867188 98.960938 " fill-opacity="1" fill-rule="nonzero"/></g></svg>